<?xml version="1.0" standalone="no"?><!DOCTYPE svg PUBLIC "-//W3C//DTD SVG 1.1//EN" "http://www.w3.org/Graphics/SVG/1.1/DTD/svg11.dtd"><svg xmlns:xlink="http://www.w3.org/1999/xlink" version="1.1" xmlns="http://www.w3.org/2000/svg" width="800" height="500"><desc>Created with Highcharts 3.0.5</desc><defs><linearGradient x1="0" y1="0" x2="0" y2="200" gradientUnits="userSpaceOnUse" id="highcharts-27"><stop offset="0" stop-color="#FFFFFF" stop-opacity="1"></stop><stop offset="1" stop-color="#E0E0E0" stop-opacity="1"></stop></linearGradient><clipPath id="highcharts-28"><rect fill="none" x="0" y="0" width="691" height="403"></rect></clipPath></defs><rect rx="0" ry="0" fill="#FFFFFF" x="0" y="0" width="800" height="500"></rect><g class="highcharts-grid" ></g><g class="highcharts-grid" ><path fill="none" d="M 58 377.5 L 749 377.5" stroke="#C0C0C0" stroke-width="1"  opacity="1"></path><path fill="none" d="M 58 297.5 L 749 297.5" stroke="#C0C0C0" stroke-width="1"  opacity="1"></path><path fill="none" d="M 58 216.5 L 749 216.5" stroke="#C0C0C0" stroke-width="1"  opacity="1"></path><path fill="none" d="M 58 136.5 L 749 136.5" stroke="#C0C0C0" stroke-width="1"  opacity="1"></path><path fill="none" d="M 58 54.5 L 749 54.5" stroke="#C0C0C0" stroke-width="1"  opacity="1"></path><path fill="none" d="M 58 458.5 L 749 458.5" stroke="#C0C0C0" stroke-width="1"  opacity="1"></path></g><g class="highcharts-grid" ><path fill="none" d="M 58 377.5 L 749 377.5" stroke="#C0C0C0" stroke-width="1"  opacity="1"></path><path fill="none" d="M 58 297.5 L 749 297.5" stroke="#C0C0C0" stroke-width="1"  opacity="1"></path><path fill="none" d="M 58 216.5 L 749 216.5" stroke="#C0C0C0" stroke-width="1"  opacity="1"></path><path fill="none" d="M 58 136.5 L 749 136.5" stroke="#C0C0C0" stroke-width="1"  opacity="1"></path><path fill="none" d="M 58 54.5 L 749 54.5" stroke="#C0C0C0" stroke-width="1"  opacity="1"></path><path fill="none" d="M 58 458.5 L 749 458.5" stroke="#C0C0C0" stroke-width="1"  opacity="1"></path></g><g class="highcharts-axis" ><path fill="none" d="M 172.5 458 L 172.5 463" stroke="#C0D0E0" stroke-width="1" opacity="1"></path><path fill="none" d="M 230.5 458 L 230.5 463" stroke="#C0D0E0" stroke-width="1" opacity="1"></path><path fill="none" d="M 287.5 458 L 287.5 463" stroke="#C0D0E0" stroke-width="1" opacity="1"></path><path fill="none" d="M 345.5 458 L 345.5 463" stroke="#C0D0E0" stroke-width="1" opacity="1"></path><path fill="none" d="M 403.5 458 L 403.5 463" stroke="#C0D0E0" stroke-width="1" opacity="1"></path><path fill="none" d="M 460.5 458 L 460.5 463" stroke="#C0D0E0" stroke-width="1" opacity="1"></path><path fill="none" d="M 518.5 458 L 518.5 463" stroke="#C0D0E0" stroke-width="1" opacity="1"></path><path fill="none" d="M 575.5 458 L 575.5 463" stroke="#C0D0E0" stroke-width="1" opacity="1"></path><path fill="none" d="M 633.5 458 L 633.5 463" stroke="#C0D0E0" stroke-width="1" opacity="1"></path><path fill="none" d="M 690.5 458 L 690.5 463" stroke="#C0D0E0" stroke-width="1" opacity="1"></path><path fill="none" d="M 749.5 458 L 749.5 463" stroke="#C0D0E0" stroke-width="1" opacity="1"></path><path fill="none" d="M 115.5 458 L 115.5 463" stroke="#C0D0E0" stroke-width="1" opacity="1"></path><path fill="none" d="M 57.5 458 L 57.5 463" stroke="#C0D0E0" stroke-width="1"></path><path fill="none" d="M 58 458.5 L 749 458.5" stroke="#C0D0E0" stroke-width="1"  visibility="visible"></path></g><g class="highcharts-axis" ><text x="25.100000381469727" y="256.5" style="font-family:'lucida grande', 'lucida sans unicode', verdana, arial, helvetica, sans-serif;font-size:12px;color:#4d759e;font-weight:bold;fill:#4d759e;"  text-anchor="middle" transform="translate(0,0) rotate(270 25.100000381469727 256.5)" visibility="visible"><tspan x="25.100000381469727">Monthly Precipitation (inches)</tspan></text></g><g class="highcharts-axis" ><text x="774.9499998092651" y="256.5" style="font-family:'lucida grande', 'lucida sans unicode', verdana, arial, helvetica, sans-serif;font-size:12px;color:#80699b;font-weight:bold;fill:#80699b;"  text-anchor="middle" transform="translate(0,0) rotate(90 774.9499998092651 256.5)" visibility="visible"><tspan x="774.9499998092651">Monthly Snowfall (inches)</tspan></text></g><g class="highcharts-series-group" ><g class="highcharts-series highcharts-tracker" visibility="visible"  transform="translate(58,55) scale(1 1)" style="" clip-path="url(#highcharts-28)"><rect fill="#4572A7" x="15" y="251" width="11" height="153" rx="0" ry="0"></rect><rect fill="#4572A7" x="73" y="279" width="11" height="104" rx="0" ry="0"></rect><rect fill="#4572A7" x="130" y="224" width="11" height="35" rx="0" ry="0"></rect><rect fill="#4572A7" x="188" y="219" width="11" height="139" rx="0" ry="0"></rect><rect fill="#4572A7" x="245" y="155" width="11" height="249" rx="0" ry="0"></rect><rect fill="#4572A7" x="303" y="319" width="11" height="60" rx="0" ry="0"></rect><rect fill="#4572A7" x="360" y="236" width="11" height="93" rx="0" ry="0"></rect><rect fill="#4572A7" x="418" y="72" width="11" height="257" rx="0" ry="0"></rect><rect fill="#4572A7" x="476" y="252" width="11" height="40" rx="0" ry="0"></rect><rect fill="#4572A7" x="533" y="256" width="11" height="133" rx="0" ry="0"></rect><rect fill="#4572A7" x="591" y="148" width="11" height="235" rx="0" ry="0"></rect><rect fill="#4572A7" x="648" y="155" width="11" height="209" rx="0" ry="0"></rect></g><g class="highcharts-markers" visibility="visible"  transform="translate(58,55) scale(1 1)" clip-path="none"></g><g class="highcharts-series highcharts-tracker" visibility="visible"  transform="translate(58,55) scale(1 1)" style="" clip-path="url(#highcharts-28)"><rect fill="#89A54E" x="15" y="404" width="11" height="0" rx="0" ry="0"></rect><rect fill="#89A54E" x="73" y="383" width="11" height="21" rx="0" ry="0"></rect><rect fill="#89A54E" x="130" y="259" width="11" height="145" rx="0" ry="0"></rect><rect fill="#89A54E" x="188" y="358" width="11" height="46" rx="0" ry="0"></rect><rect fill="#89A54E" x="245" y="404" width="11" height="0" rx="0" ry="0"></rect><rect fill="#89A54E" x="303" y="379" width="11" height="25" rx="0" ry="0"></rect><rect fill="#89A54E" x="360" y="329" width="11" height="75" rx="0" ry="0"></rect><rect fill="#89A54E" x="418" y="329" width="11" height="75" rx="0" ry="0"></rect><rect fill="#89A54E" x="476" y="292" width="11" height="112" rx="0" ry="0"></rect><rect fill="#89A54E" x="533" y="389" width="11" height="15" rx="0" ry="0"></rect><rect fill="#89A54E" x="591" y="383" width="11" height="21" rx="0" ry="0"></rect><rect fill="#89A54E" x="648" y="364" width="11" height="40" rx="0" ry="0"></rect></g><g class="highcharts-markers" visibility="visible"  transform="translate(58,55) scale(1 1)" clip-path="none"></g><g class="highcharts-series highcharts-tracker" visibility="visible"  transform="translate(58,55) scale(1 1)" style="" clip-path="url(#highcharts-28)"><rect fill="#80699B" x="32" y="404" width="11" height="0" rx="0" ry="0"></rect><rect fill="#80699B" x="90" y="404" width="11" height="0" rx="0" ry="0"></rect><rect fill="#80699B" x="147" y="404" width="11" height="0" rx="0" ry="0"></rect><rect fill="#80699B" x="205" y="404" width="11" height="0" rx="0" ry="0"></rect><rect fill="#80699B" x="263" y="404" width="11" height="0" rx="0" ry="0"></rect><rect fill="#80699B" x="320" y="404" width="11" height="0" rx="0" ry="0"></rect><rect fill="#80699B" x="378" y="404" width="11" height="0" rx="0" ry="0"></rect><rect fill="#80699B" x="435" y="404" width="11" height="0" rx="0" ry="0"></rect><rect fill="#80699B" x="493" y="404" width="11" height="0" rx="0" ry="0"></rect><rect fill="#80699B" x="550" y="404" width="11" height="0" rx="0" ry="0"></rect><rect fill="#80699B" x="608" y="404" width="11" height="0" rx="0" ry="0"></rect><rect fill="#80699B" x="666" y="404" width="11" height="0" rx="0" ry="0"></rect></g><g class="highcharts-markers" visibility="visible"  transform="translate(58,55) scale(1 1)" clip-path="none"></g><g class="highcharts-series" visibility="visible"  transform="translate(58,55) scale(1 1)" clip-path="url(#highcharts-28)"><path fill="none" d="M 28.791666666666668 254.696 L 86.375 265.98 L 143.95833333333334 271.622 L 201.54166666666666 252.278 L 259.125 265.98 L 316.70833333333337 228.098 L 374.2916666666667 270.81600000000003 L 431.87500000000006 253.48700000000002 L 489.45833333333337 236.964 L 547.0416666666666 213.993 L 604.625 223.665 L 662.2083333333334 234.949" stroke="#2f7ed8" stroke-width="2" ></path><path fill="none" d="M 18.791666666666668 254.696 L 28.791666666666668 254.696 L 86.375 265.98 L 143.95833333333334 271.622 L 201.54166666666666 252.278 L 259.125 265.98 L 316.70833333333337 228.098 L 374.2916666666667 270.81600000000003 L 431.87500000000006 253.48700000000002 L 489.45833333333337 236.964 L 547.0416666666666 213.993 L 604.625 223.665 L 662.2083333333334 234.949 L 672.2083333333334 234.949" stroke-linejoin="round" visibility="visible" stroke-opacity="0.0001" stroke="rgb(192,192,192)" stroke-width="22"  class=" highcharts-tracker" style=""></path></g><g class="highcharts-markers highcharts-tracker" visibility="visible"  transform="translate(58,55) scale(1 1)" style="" clip-path="none"><path fill="#2f7ed8" d="M 662 230.949 C 667.328 230.949 667.328 238.949 662 238.949 C 656.672 238.949 656.672 230.949 662 230.949 Z"></path><path fill="#2f7ed8" d="M 604 219.665 C 609.328 219.665 609.328 227.665 604 227.665 C 598.672 227.665 598.672 219.665 604 219.665 Z"></path><path fill="#2f7ed8" d="M 547 209.993 C 552.328 209.993 552.328 217.993 547 217.993 C 541.672 217.993 541.672 209.993 547 209.993 Z"></path><path fill="#2f7ed8" d="M 489 232.964 C 494.328 232.964 494.328 240.964 489 240.964 C 483.672 240.964 483.672 232.964 489 232.964 Z"></path><path fill="#2f7ed8" d="M 431 249.48700000000002 C 436.328 249.48700000000002 436.328 257.487 431 257.487 C 425.672 257.487 425.672 249.48700000000002 431 249.48700000000002 Z"></path><path fill="#2f7ed8" d="M 374 266.81600000000003 C 379.328 266.81600000000003 379.328 274.81600000000003 374 274.81600000000003 C 368.672 274.81600000000003 368.672 266.81600000000003 374 266.81600000000003 Z"></path><path fill="#2f7ed8" d="M 316 224.098 C 321.328 224.098 321.328 232.098 316 232.098 C 310.672 232.098 310.672 224.098 316 224.098 Z"></path><path fill="#2f7ed8" d="M 259 261.98 C 264.328 261.98 264.328 269.98 259 269.98 C 253.672 269.98 253.672 261.98 259 261.98 Z"></path><path fill="#2f7ed8" d="M 201 248.278 C 206.328 248.278 206.328 256.278 201 256.278 C 195.672 256.278 195.672 248.278 201 248.278 Z"></path><path fill="#2f7ed8" d="M 143 267.622 C 148.328 267.622 148.328 275.622 143 275.622 C 137.672 275.622 137.672 267.622 143 267.622 Z"></path><path fill="#2f7ed8" d="M 86 261.98 C 91.328 261.98 91.328 269.98 86 269.98 C 80.672 269.98 80.672 261.98 86 261.98 Z"></path><path fill="#2f7ed8" d="M 28 250.696 C 33.328 250.696 33.328 258.696 28 258.696 C 22.672 258.696 22.672 250.696 28 250.696 Z"></path></g></g><text x="400" y="25" style="font-family:'lucida grande', 'lucida sans unicode', verdana, arial, helvetica, sans-serif;font-size:16px;color:#274b6d;fill:#274b6d;width:736px;" text-anchor="middle" class="highcharts-title" ><tspan x="400">Monthly Precipitation for the 2020 Water Year  (Oct 2019 - Sept 2020)</tspan></text><text x="400" y="40" style="font-family:'lucida grande', 'lucida sans unicode', verdana, arial, helvetica, sans-serif;font-size:12px;color:#4d759e;fill:#4d759e;width:736px;" text-anchor="middle" class="highcharts-subtitle" ><tspan x="400">Station: NC-CH-41 Pittsboro 3.3 NNW</tspan></text><g class="highcharts-legend"  transform="translate(66,66)"><rect rx="5" ry="5" fill="none" x="0.5" y="0.5" width="690" height="25" stroke="black" stroke-width="5"  stroke-opacity="0.049999999999999996" transform="translate(1, 1)" visibility="visible"></rect><rect rx="5" ry="5" fill="none" x="0.5" y="0.5" width="690" height="25" stroke="black" stroke-width="3"  stroke-opacity="0.09999999999999999" transform="translate(1, 1)" visibility="visible"></rect><rect rx="5" ry="5" fill="none" x="0.5" y="0.5" width="690" height="25" stroke="black" stroke-width="1"  stroke-opacity="0.15" transform="translate(1, 1)" visibility="visible"></rect><rect rx="5" ry="5" fill="url(#highcharts-27)" x="0.5" y="0.5" width="690" height="25" stroke="#909090" stroke-width="1" visibility="visible"></rect><g ><g><g class="highcharts-legend-item"  transform="translate(8,3)"><text x="21" y="15" style="font-family:'lucida grande', 'lucida sans unicode', verdana, arial, helvetica, sans-serif;font-size:12px;cursor:pointer;color:#274b6d;fill:#274b6d;" text-anchor="start" ><tspan x="21">Daily Prcp Monthly Total</tspan></text><rect rx="2" ry="2" fill="#4572A7" x="0" y="4" width="16" height="12" ></rect></g><g class="highcharts-legend-item"  transform="translate(179.81666564941406,3)"><text x="21" y="15" style="font-family:'lucida grande', 'lucida sans unicode', verdana, arial, helvetica, sans-serif;font-size:12px;cursor:pointer;color:#274b6d;fill:#274b6d;" text-anchor="start" ><tspan x="21">Multiday Prcp Monthly Total</tspan></text><rect rx="2" ry="2" fill="#89A54E" x="0" y="4" width="16" height="12" ></rect></g><g class="highcharts-legend-item"  transform="translate(372.46665954589844,3)"><text x="21" y="15" style="font-family:'lucida grande', 'lucida sans unicode', verdana, arial, helvetica, sans-serif;font-size:12px;cursor:pointer;color:#274b6d;fill:#274b6d;" text-anchor="start" ><tspan x="21">Snowfall Monthly Total</tspan></text><rect rx="2" ry="2" fill="#80699B" x="0" y="4" width="16" height="12" ></rect></g><g class="highcharts-legend-item"  transform="translate(534.9333190917969,3)"><path fill="none" d="M 0 11 L 16 11" stroke="#2f7ed8" stroke-width="2"></path><path fill="#2f7ed8" d="M 8 7 C 13.328 7 13.328 15 8 15 C 2.6719999999999997 15 2.6719999999999997 7 8 7 Z"></path><text x="21" y="15" style="font-family:'lucida grande', 'lucida sans unicode', verdana, arial, helvetica, sans-serif;font-size:12px;cursor:pointer;color:#274b6d;fill:#274b6d;" text-anchor="start" ><tspan x="21">30 Year Avg by PRISM</tspan></text></g></g></g></g><g class="highcharts-axis-labels" ><text x="86.79166666666667" y="472" style="font-family:'lucida grande', 'lucida sans unicode', verdana, arial, helvetica, sans-serif;font-size:11px;width:38px;color:#666;cursor:default;line-height:14px;fill:#666;" text-anchor="middle" opacity="1"><tspan x="86.79166666666667">Oct</tspan><tspan dy="14px" x="86.79166666666667">2019</tspan></text><text x="144.37500000000003" y="472" style="font-family:'lucida grande', 'lucida sans unicode', verdana, arial, helvetica, sans-serif;font-size:11px;width:38px;color:#666;cursor:default;line-height:14px;fill:#666;" text-anchor="middle" opacity="1"><tspan x="144.37500000000003">Nov</tspan><tspan dy="14px" x="144.37500000000003">2019</tspan></text><text x="201.95833333333334" y="472" style="font-family:'lucida grande', 'lucida sans unicode', verdana, arial, helvetica, sans-serif;font-size:11px;width:38px;color:#666;cursor:default;line-height:14px;fill:#666;" text-anchor="middle" opacity="1"><tspan x="201.95833333333334">Dec</tspan><tspan dy="14px" x="201.95833333333334">2019</tspan></text><text x="259.5416666666667" y="472" style="font-family:'lucida grande', 'lucida sans unicode', verdana, arial, helvetica, sans-serif;font-size:11px;width:38px;color:#666;cursor:default;line-height:14px;fill:#666;" text-anchor="middle" opacity="1"><tspan x="259.5416666666667">Jan</tspan><tspan dy="14px" x="259.5416666666667">2020</tspan></text><text x="317.125" y="472" style="font-family:'lucida grande', 'lucida sans unicode', verdana, arial, helvetica, sans-serif;font-size:11px;width:38px;color:#666;cursor:default;line-height:14px;fill:#666;" text-anchor="middle" opacity="1"><tspan x="317.125">Feb</tspan><tspan dy="14px" x="317.125">2020</tspan></text><text x="374.70833333333337" y="472" style="font-family:'lucida grande', 'lucida sans unicode', verdana, arial, helvetica, sans-serif;font-size:11px;width:38px;color:#666;cursor:default;line-height:14px;fill:#666;" text-anchor="middle" opacity="1"><tspan x="374.70833333333337">Mar</tspan><tspan dy="14px" x="374.70833333333337">2020</tspan></text><text x="432.2916666666667" y="472" style="font-family:'lucida grande', 'lucida sans unicode', verdana, arial, helvetica, sans-serif;font-size:11px;width:38px;color:#666;cursor:default;line-height:14px;fill:#666;" text-anchor="middle" opacity="1"><tspan x="432.2916666666667">Apr</tspan><tspan dy="14px" x="432.2916666666667">2020</tspan></text><text x="489.87500000000006" y="472" style="font-family:'lucida grande', 'lucida sans unicode', verdana, arial, helvetica, sans-serif;font-size:11px;width:38px;color:#666;cursor:default;line-height:14px;fill:#666;" text-anchor="middle" opacity="1"><tspan x="489.87500000000006">May</tspan><tspan dy="14px" x="489.87500000000006">2020</tspan></text><text x="547.4583333333334" y="472" style="font-family:'lucida grande', 'lucida sans unicode', verdana, arial, helvetica, sans-serif;font-size:11px;width:38px;color:#666;cursor:default;line-height:14px;fill:#666;" text-anchor="middle" opacity="1"><tspan x="547.4583333333334">Jun</tspan><tspan dy="14px" x="547.4583333333334">2020</tspan></text><text x="605.0416666666667" y="472" style="font-family:'lucida grande', 'lucida sans unicode', verdana, arial, helvetica, sans-serif;font-size:11px;width:38px;color:#666;cursor:default;line-height:14px;fill:#666;" text-anchor="middle" opacity="1"><tspan x="605.0416666666667">Jul</tspan><tspan dy="14px" x="605.0416666666667">2020</tspan></text><text x="662.625" y="472" style="font-family:'lucida grande', 'lucida sans unicode', verdana, arial, helvetica, sans-serif;font-size:11px;width:38px;color:#666;cursor:default;line-height:14px;fill:#666;" text-anchor="middle" opacity="1"><tspan x="662.625">Aug</tspan><tspan dy="14px" x="662.625">2020</tspan></text><text x="720.2083333333334" y="472" style="font-family:'lucida grande', 'lucida sans unicode', verdana, arial, helvetica, sans-serif;font-size:11px;width:38px;color:#666;cursor:default;line-height:14px;fill:#666;" text-anchor="middle" opacity="1"><tspan x="720.2083333333334">Sep</tspan><tspan dy="14px" x="720.2083333333334">2020</tspan></text></g><g class="highcharts-axis-labels" ><text x="50" y="463.25" style="font-family:'lucida grande', 'lucida sans unicode', verdana, arial, helvetica, sans-serif;font-size:11px;width:244px;color:#666;cursor:default;line-height:14px;fill:#666;" text-anchor="end" opacity="1"><tspan x="50">0</tspan></text><text x="50" y="382.65" style="font-family:'lucida grande', 'lucida sans unicode', verdana, arial, helvetica, sans-serif;font-size:11px;width:244px;color:#666;cursor:default;line-height:14px;fill:#666;" text-anchor="end" opacity="1"><tspan x="50">2</tspan></text><text x="50" y="302.05" style="font-family:'lucida grande', 'lucida sans unicode', verdana, arial, helvetica, sans-serif;font-size:11px;width:244px;color:#666;cursor:default;line-height:14px;fill:#666;" text-anchor="end" opacity="1"><tspan x="50">4</tspan></text><text x="50" y="221.45000000000005" style="font-family:'lucida grande', 'lucida sans unicode', verdana, arial, helvetica, sans-serif;font-size:11px;width:244px;color:#666;cursor:default;line-height:14px;fill:#666;" text-anchor="end" opacity="1"><tspan x="50">6</tspan></text><text x="50" y="140.85000000000002" style="font-family:'lucida grande', 'lucida sans unicode', verdana, arial, helvetica, sans-serif;font-size:11px;width:244px;color:#666;cursor:default;line-height:14px;fill:#666;" text-anchor="end" opacity="1"><tspan x="50">8</tspan></text><text x="50" y="60.25" style="font-family:'lucida grande', 'lucida sans unicode', verdana, arial, helvetica, sans-serif;font-size:11px;width:244px;color:#666;cursor:default;line-height:14px;fill:#666;" text-anchor="end" opacity="1"><tspan x="50">10</tspan></text></g><g class="highcharts-axis-labels" ><text x="757" y="463.16941611677663" style="font-family:'lucida grande', 'lucida sans unicode', verdana, arial, helvetica, sans-serif;font-size:11px;width:244px;color:#666;cursor:default;line-height:14px;fill:#666;" text-anchor="start" opacity="1"><tspan x="757">0</tspan></text><text x="757" y="382.5855328934213" style="font-family:'lucida grande', 'lucida sans unicode', verdana, arial, helvetica, sans-serif;font-size:11px;width:244px;color:#666;cursor:default;line-height:14px;fill:#666;" text-anchor="start" opacity="1"><tspan x="757">1</tspan></text><text x="757" y="302.001649670066" style="font-family:'lucida grande', 'lucida sans unicode', verdana, arial, helvetica, sans-serif;font-size:11px;width:244px;color:#666;cursor:default;line-height:14px;fill:#666;" text-anchor="start" opacity="1"><tspan x="757">2</tspan></text><text x="757" y="221.41776644671063" style="font-family:'lucida grande', 'lucida sans unicode', verdana, arial, helvetica, sans-serif;font-size:11px;width:244px;color:#666;cursor:default;line-height:14px;fill:#666;" text-anchor="start" opacity="1"><tspan x="757">3</tspan></text><text x="757" y="140.83388322335531" style="font-family:'lucida grande', 'lucida sans unicode', verdana, arial, helvetica, sans-serif;font-size:11px;width:244px;color:#666;cursor:default;line-height:14px;fill:#666;" text-anchor="start" opacity="1"><tspan x="757">4</tspan></text><text x="757" y="60.25" style="font-family:'lucida grande', 'lucida sans unicode', verdana, arial, helvetica, sans-serif;font-size:11px;width:244px;color:#666;cursor:default;line-height:14px;fill:#666;" text-anchor="start" opacity="1"><tspan x="757">5</tspan></text></g><g class="highcharts-tooltip"  style="cursor:default;padding:0;white-space:nowrap;line-height:2;" visibility="hidden" transform="translate(0,0)"><rect rx="3" ry="3" fill="none" x="0.5" y="0.5" width="20" height="20"  stroke="black" stroke-opacity="0.049999999999999996" stroke-width="5" transform="translate(1, 1)"></rect><rect rx="3" ry="3" fill="none" x="0.5" y="0.5" width="20" height="20"  stroke="black" stroke-opacity="0.09999999999999999" stroke-width="3" transform="translate(1, 1)"></rect><rect rx="3" ry="3" fill="none" x="0.5" y="0.5" width="20" height="20"  stroke="black" stroke-opacity="0.15" stroke-width="1" transform="translate(1, 1)"></rect><rect rx="3" ry="3" fill="url(#highcharts-27)" x="0.5" y="0.5" width="20" height="20"></rect><text x="10" y="23" style="font-family:'lucida grande', 'lucida sans unicode', verdana, arial, helvetica, sans-serif;font-size:12px;font-weight:bold;color:#333333;fill:#333333;" ></text></g></svg>