<?xml version="1.0" standalone="no"?><!DOCTYPE svg PUBLIC "-//W3C//DTD SVG 1.1//EN" "http://www.w3.org/Graphics/SVG/1.1/DTD/svg11.dtd"><svg xmlns:xlink="http://www.w3.org/1999/xlink" version="1.1" xmlns="http://www.w3.org/2000/svg" width="800" height="500"><desc>Created with Highcharts 3.0.5</desc><defs><linearGradient x1="0" y1="0" x2="0" y2="200" gradientUnits="userSpaceOnUse" id="highcharts-30"><stop offset="0" stop-color="#FFFFFF" stop-opacity="1"></stop><stop offset="1" stop-color="#E0E0E0" stop-opacity="1"></stop></linearGradient><linearGradient x1="0" y1="0" x2="0" y2="50" gradientUnits="userSpaceOnUse" id="highcharts-31"><stop offset="0" stop-color="#FFFFFF" stop-opacity="1"></stop><stop offset="1" stop-color="#E0E0E0" stop-opacity="1"></stop></linearGradient><clipPath id="highcharts-32"><rect fill="none" x="0" y="0" width="732" height="403"></rect></clipPath></defs><rect rx="0" ry="0" fill="#FFFFFF" x="0" y="0" width="800" height="500"></rect><path fill="#FEFFE6" d="M 122 55 L 122 458 182 458 182 55"></path><path fill="#FEFFE6" d="M 243 55 L 243 458 305 458 305 55"></path><path fill="#FEFFE6" d="M 363 55 L 363 458 425 458 425 55"></path><path fill="#FEFFE6" d="M 485 55 L 485 458 547 458 547 55"></path><path fill="#FEFFE6" d="M 607 55 L 607 458 668 458 668 55"></path><path fill="#FEFFE6" d="M 730 55 L 730 458 790 458 790 55"></path><g class="highcharts-grid" ></g><g class="highcharts-grid" ><path fill="none" d="M 58 391.5 L 790 391.5" stroke="#C0C0C0" stroke-width="1"  opacity="1"></path><path fill="none" d="M 58 324.5 L 790 324.5" stroke="#C0C0C0" stroke-width="1"  opacity="1"></path><path fill="none" d="M 58 257.5 L 790 257.5" stroke="#C0C0C0" stroke-width="1"  opacity="1"></path><path fill="none" d="M 58 189.5 L 790 189.5" stroke="#C0C0C0" stroke-width="1"  opacity="1"></path><path fill="none" d="M 58 122.5 L 790 122.5" stroke="#C0C0C0" stroke-width="1"  opacity="1"></path><path fill="none" d="M 58 54.5 L 790 54.5" stroke="#C0C0C0" stroke-width="1"  opacity="1"></path><path fill="none" d="M 58 458.5 L 790 458.5" stroke="#C0C0C0" stroke-width="1"  opacity="1"></path></g><g class="highcharts-axis" ><path fill="none" d="M 121.5 458 L 121.5 463" stroke="#C0D0E0" stroke-width="1" opacity="1"></path><path fill="none" d="M 181.5 458 L 181.5 463" stroke="#C0D0E0" stroke-width="1" opacity="1"></path><path fill="none" d="M 242.5 458 L 242.5 463" stroke="#C0D0E0" stroke-width="1" opacity="1"></path><path fill="none" d="M 304.5 458 L 304.5 463" stroke="#C0D0E0" stroke-width="1" opacity="1"></path><path fill="none" d="M 362.5 458 L 362.5 463" stroke="#C0D0E0" stroke-width="1" opacity="1"></path><path fill="none" d="M 424.5 458 L 424.5 463" stroke="#C0D0E0" stroke-width="1" opacity="1"></path><path fill="none" d="M 484.5 458 L 484.5 463" stroke="#C0D0E0" stroke-width="1" opacity="1"></path><path fill="none" d="M 546.5 458 L 546.5 463" stroke="#C0D0E0" stroke-width="1" opacity="1"></path><path fill="none" d="M 606.5 458 L 606.5 463" stroke="#C0D0E0" stroke-width="1" opacity="1"></path><path fill="none" d="M 667.5 458 L 667.5 463" stroke="#C0D0E0" stroke-width="1" opacity="1"></path><path fill="none" d="M 729.5 458 L 729.5 463" stroke="#C0D0E0" stroke-width="1" opacity="1"></path><path fill="none" d="M 790.5 458 L 790.5 463" stroke="#C0D0E0" stroke-width="1" opacity="1"></path><path fill="none" d="M 59.5 458 L 59.5 463" stroke="#C0D0E0" stroke-width="1" opacity="1"></path><path fill="none" d="M 58 458.5 L 790 458.5" stroke="#C0D0E0" stroke-width="1"  visibility="visible"></path></g><g class="highcharts-axis" ><text x="25.100000381469727" y="256.5" style="font-family:'lucida grande', 'lucida sans unicode', verdana, arial, helvetica, sans-serif;font-size:12px;color:#4d759e;font-weight:bold;fill:#4d759e;"  text-anchor="middle" transform="translate(0,0) rotate(270 25.100000381469727 256.5)" visibility="visible"><tspan x="25.100000381469727">Precipitation Amount (inches)</tspan></text></g><g class="highcharts-series-group" ><g class="highcharts-series" visibility="visible"  transform="translate(58,55) scale(1 1)" clip-path="url(#highcharts-32)"><path fill="none" d="M 0 0" stroke="#2f7ed8" stroke-width="1" ></path><path fill="none" d="M 0 0" stroke-linejoin="round" visibility="visible" stroke-opacity="0.0001" stroke="rgb(192,192,192)" stroke-width="21"  class=" highcharts-tracker" style=""></path></g><g class="highcharts-markers highcharts-tracker" visibility="visible"  transform="translate(58,55) scale(1 1)" style="" clip-path="none"><path fill="#2f7ed8" d="M 730 20.702333333333343 C 732.664 20.702333333333343 732.664 24.702333333333343 730 24.702333333333343 C 727.336 24.702333333333343 727.336 20.702333333333343 730 20.702333333333343 Z"></path><path fill="#2f7ed8" d="M 728 29.098166666666657 C 730.664 29.098166666666657 730.664 33.09816666666666 728 33.09816666666666 C 725.336 33.09816666666666 725.336 29.098166666666657 728 29.098166666666657 Z"></path><path fill="#2f7ed8" d="M 726 29.23249999999996 C 728.664 29.23249999999996 728.664 33.23249999999996 726 33.23249999999996 C 723.336 33.23249999999996 723.336 29.23249999999996 726 29.23249999999996 Z"></path><path fill="#2f7ed8" d="M 724 29.23249999999996 C 726.664 29.23249999999996 726.664 33.23249999999996 724 33.23249999999996 C 721.336 33.23249999999996 721.336 29.23249999999996 724 29.23249999999996 Z"></path><path fill="#2f7ed8" d="M 722 29.29966666666661 C 724.664 29.29966666666661 724.664 33.29966666666661 722 33.29966666666661 C 719.336 33.29966666666661 719.336 29.29966666666661 722 29.29966666666661 Z"></path><path fill="#2f7ed8" d="M 720 33.12816666666663 C 722.664 33.12816666666663 722.664 37.12816666666663 720 37.12816666666663 C 717.336 37.12816666666663 717.336 33.12816666666663 720 33.12816666666663 Z"></path><path fill="#2f7ed8" d="M 718 39.24033333333335 C 720.664 39.24033333333335 720.664 43.24033333333335 718 43.24033333333335 C 715.336 43.24033333333335 715.336 39.24033333333335 718 39.24033333333335 Z"></path><path fill="#2f7ed8" d="M 716 39.24033333333335 C 718.664 39.24033333333335 718.664 43.24033333333335 716 43.24033333333335 C 713.336 43.24033333333335 713.336 39.24033333333335 716 39.24033333333335 Z"></path><path fill="#2f7ed8" d="M 714 39.24033333333335 C 716.664 39.24033333333335 716.664 43.24033333333335 714 43.24033333333335 C 711.336 43.24033333333335 711.336 39.24033333333335 714 39.24033333333335 Z"></path><path fill="#2f7ed8" d="M 712 39.24033333333335 C 714.664 39.24033333333335 714.664 43.24033333333335 712 43.24033333333335 C 709.336 43.24033333333335 709.336 39.24033333333335 712 39.24033333333335 Z"></path><path fill="#2f7ed8" d="M 710 39.24033333333335 C 712.664 39.24033333333335 712.664 43.24033333333335 710 43.24033333333335 C 707.336 43.24033333333335 707.336 39.24033333333335 710 39.24033333333335 Z"></path><path fill="#2f7ed8" d="M 708 39.24033333333335 C 710.664 39.24033333333335 710.664 43.24033333333335 708 43.24033333333335 C 705.336 43.24033333333335 705.336 39.24033333333335 708 39.24033333333335 Z"></path><path fill="#2f7ed8" d="M 706 39.374666666666656 C 708.664 39.374666666666656 708.664 43.374666666666656 706 43.374666666666656 C 703.336 43.374666666666656 703.336 39.374666666666656 706 39.374666666666656 Z"></path><path fill="#2f7ed8" d="M 704 49.852666666666664 C 706.664 49.852666666666664 706.664 53.852666666666664 704 53.852666666666664 C 701.336 53.852666666666664 701.336 49.852666666666664 704 49.852666666666664 Z"></path><path fill="#2f7ed8" d="M 702 50.524333333333345 C 704.664 50.524333333333345 704.664 54.524333333333345 702 54.524333333333345 C 699.336 54.524333333333345 699.336 50.524333333333345 702 50.524333333333345 Z"></path><path fill="#2f7ed8" d="M 698 50.725833333333355 C 700.664 50.725833333333355 700.664 54.725833333333355 698 54.725833333333355 C 695.336 54.725833333333355 695.336 50.725833333333355 698 50.725833333333355 Z"></path><path fill="#2f7ed8" d="M 696 50.725833333333355 C 698.664 50.725833333333355 698.664 54.725833333333355 696 54.725833333333355 C 693.336 54.725833333333355 693.336 50.725833333333355 696 50.725833333333355 Z"></path><path fill="#2f7ed8" d="M 692 53.815499999999986 C 694.664 53.815499999999986 694.664 57.815499999999986 692 57.815499999999986 C 689.336 57.815499999999986 689.336 53.815499999999986 692 53.815499999999986 Z"></path><path fill="#2f7ed8" d="M 686 57.240999999999985 C 688.664 57.240999999999985 688.664 61.240999999999985 686 61.240999999999985 C 683.336 61.240999999999985 683.336 57.240999999999985 686 57.240999999999985 Z"></path><path fill="#2f7ed8" d="M 684 57.240999999999985 C 686.664 57.240999999999985 686.664 61.240999999999985 684 61.240999999999985 C 681.336 61.240999999999985 681.336 57.240999999999985 684 57.240999999999985 Z"></path><path fill="#2f7ed8" d="M 682 57.240999999999985 C 684.664 57.240999999999985 684.664 61.240999999999985 682 61.240999999999985 C 679.336 61.240999999999985 679.336 57.240999999999985 682 57.240999999999985 Z"></path><path fill="#2f7ed8" d="M 680 57.240999999999985 C 682.664 57.240999999999985 682.664 61.240999999999985 680 61.240999999999985 C 677.336 61.240999999999985 677.336 57.240999999999985 680 57.240999999999985 Z"></path><path fill="#2f7ed8" d="M 678 57.240999999999985 C 680.664 57.240999999999985 680.664 61.240999999999985 678 61.240999999999985 C 675.336 61.240999999999985 675.336 57.240999999999985 678 57.240999999999985 Z"></path><path fill="#2f7ed8" d="M 676 57.240999999999985 C 678.664 57.240999999999985 678.664 61.240999999999985 676 61.240999999999985 C 673.336 61.240999999999985 673.336 57.240999999999985 676 57.240999999999985 Z"></path><path fill="#2f7ed8" d="M 674 57.240999999999985 C 676.664 57.240999999999985 676.664 61.240999999999985 674 61.240999999999985 C 671.336 61.240999999999985 671.336 57.240999999999985 674 57.240999999999985 Z"></path><path fill="#2f7ed8" d="M 672 57.240999999999985 C 674.664 57.240999999999985 674.664 61.240999999999985 672 61.240999999999985 C 669.336 61.240999999999985 669.336 57.240999999999985 672 57.240999999999985 Z"></path><path fill="#2f7ed8" d="M 670 62.27850000000001 C 672.664 62.27850000000001 672.664 66.27850000000001 670 66.27850000000001 C 667.336 66.27850000000001 667.336 62.27850000000001 670 62.27850000000001 Z"></path><path fill="#2f7ed8" d="M 668 62.27850000000001 C 670.664 62.27850000000001 670.664 66.27850000000001 668 66.27850000000001 C 665.336 66.27850000000001 665.336 62.27850000000001 668 62.27850000000001 Z"></path><path fill="#2f7ed8" d="M 666 62.48000000000002 C 668.664 62.48000000000002 668.664 66.48000000000002 666 66.48000000000002 C 663.336 66.48000000000002 663.336 62.48000000000002 666 62.48000000000002 Z"></path><path fill="#2f7ed8" d="M 664 62.48000000000002 C 666.664 62.48000000000002 666.664 66.48000000000002 664 66.48000000000002 C 661.336 66.48000000000002 661.336 62.48000000000002 664 62.48000000000002 Z"></path><path fill="#2f7ed8" d="M 662 62.48000000000002 C 664.664 62.48000000000002 664.664 66.48000000000002 662 66.48000000000002 C 659.336 66.48000000000002 659.336 62.48000000000002 662 62.48000000000002 Z"></path><path fill="#2f7ed8" d="M 660 62.48000000000002 C 662.664 62.48000000000002 662.664 66.48000000000002 660 66.48000000000002 C 657.336 66.48000000000002 657.336 62.48000000000002 660 62.48000000000002 Z"></path><path fill="#2f7ed8" d="M 658 62.48000000000002 C 660.664 62.48000000000002 660.664 66.48000000000002 658 66.48000000000002 C 655.336 66.48000000000002 655.336 62.48000000000002 658 62.48000000000002 Z"></path><path fill="#2f7ed8" d="M 652 64.56216666666666 C 654.664 64.56216666666666 654.664 68.56216666666666 652 68.56216666666666 C 649.336 68.56216666666666 649.336 64.56216666666666 652 64.56216666666666 Z"></path><path fill="#2f7ed8" d="M 648 65.77116666666666 C 650.664 65.77116666666666 650.664 69.77116666666666 648 69.77116666666666 C 645.336 69.77116666666666 645.336 65.77116666666666 648 65.77116666666666 Z"></path><path fill="#2f7ed8" d="M 646 65.83833333333331 C 648.664 65.83833333333331 648.664 69.83833333333331 646 69.83833333333331 C 643.336 69.83833333333331 643.336 65.83833333333331 646 65.83833333333331 Z"></path><path fill="#2f7ed8" d="M 644 65.90550000000002 C 646.664 65.90550000000002 646.664 69.90550000000002 644 69.90550000000002 C 641.336 69.90550000000002 641.336 65.90550000000002 644 65.90550000000002 Z"></path><path fill="#2f7ed8" d="M 640 69.59966666666662 C 642.664 69.59966666666662 642.664 73.59966666666662 640 73.59966666666662 C 637.336 73.59966666666662 637.336 69.59966666666662 640 69.59966666666662 Z"></path><path fill="#2f7ed8" d="M 638 76.78649999999999 C 640.664 76.78649999999999 640.664 80.78649999999999 638 80.78649999999999 C 635.336 80.78649999999999 635.336 76.78649999999999 638 76.78649999999999 Z"></path><path fill="#2f7ed8" d="M 636 81.6225 C 638.664 81.6225 638.664 85.6225 636 85.6225 C 633.336 85.6225 633.336 81.6225 636 81.6225 Z"></path><path fill="#2f7ed8" d="M 634 81.6225 C 636.664 81.6225 636.664 85.6225 634 85.6225 C 631.336 85.6225 631.336 81.6225 634 81.6225 Z"></path><path fill="#2f7ed8" d="M 632 81.6225 C 634.664 81.6225 634.664 85.6225 632 85.6225 C 629.336 85.6225 629.336 81.6225 632 81.6225 Z"></path><path fill="#2f7ed8" d="M 630 81.6225 C 632.664 81.6225 632.664 85.6225 630 85.6225 C 627.336 85.6225 627.336 81.6225 630 81.6225 Z"></path><path fill="#2f7ed8" d="M 628 81.6225 C 630.664 81.6225 630.664 85.6225 628 85.6225 C 625.336 85.6225 625.336 81.6225 628 81.6225 Z"></path><path fill="#2f7ed8" d="M 622 81.7568333333333 C 624.664 81.7568333333333 624.664 85.7568333333333 622 85.7568333333333 C 619.336 85.7568333333333 619.336 81.7568333333333 622 81.7568333333333 Z"></path><path fill="#2f7ed8" d="M 620 81.95833333333331 C 622.664 81.95833333333331 622.664 85.95833333333331 620 85.95833333333331 C 617.336 85.95833333333331 617.336 81.95833333333331 620 81.95833333333331 Z"></path><path fill="#2f7ed8" d="M 618 81.95833333333331 C 620.664 81.95833333333331 620.664 85.95833333333331 618 85.95833333333331 C 615.336 85.95833333333331 615.336 81.95833333333331 618 81.95833333333331 Z"></path><path fill="#2f7ed8" d="M 616 81.95833333333331 C 618.664 81.95833333333331 618.664 85.95833333333331 616 85.95833333333331 C 613.336 85.95833333333331 613.336 81.95833333333331 616 81.95833333333331 Z"></path><path fill="#2f7ed8" d="M 614 104.92933333333332 C 616.664 104.92933333333332 616.664 108.92933333333332 614 108.92933333333332 C 611.336 108.92933333333332 611.336 104.92933333333332 614 104.92933333333332 Z"></path><path fill="#2f7ed8" d="M 612 104.92933333333332 C 614.664 104.92933333333332 614.664 108.92933333333332 612 108.92933333333332 C 609.336 108.92933333333332 609.336 104.92933333333332 612 104.92933333333332 Z"></path><path fill="#2f7ed8" d="M 610 104.92933333333332 C 612.664 104.92933333333332 612.664 108.92933333333332 610 108.92933333333332 C 607.336 108.92933333333332 607.336 104.92933333333332 610 104.92933333333332 Z"></path><path fill="#2f7ed8" d="M 608 104.92933333333332 C 610.664 104.92933333333332 610.664 108.92933333333332 608 108.92933333333332 C 605.336 108.92933333333332 605.336 104.92933333333332 608 104.92933333333332 Z"></path><path fill="#2f7ed8" d="M 606 104.92933333333332 C 608.664 104.92933333333332 608.664 108.92933333333332 606 108.92933333333332 C 603.336 108.92933333333332 603.336 104.92933333333332 606 104.92933333333332 Z"></path><path fill="#2f7ed8" d="M 604 104.92933333333332 C 606.664 104.92933333333332 606.664 108.92933333333332 604 108.92933333333332 C 601.336 108.92933333333332 601.336 104.92933333333332 604 104.92933333333332 Z"></path><path fill="#2f7ed8" d="M 602 111.04149999999998 C 604.664 111.04149999999998 604.664 115.04149999999998 602 115.04149999999998 C 599.336 115.04149999999998 599.336 111.04149999999998 602 111.04149999999998 Z"></path><path fill="#2f7ed8" d="M 600 111.04149999999998 C 602.664 111.04149999999998 602.664 115.04149999999998 600 115.04149999999998 C 597.336 115.04149999999998 597.336 111.04149999999998 600 111.04149999999998 Z"></path><path fill="#2f7ed8" d="M 598 111.04149999999998 C 600.664 111.04149999999998 600.664 115.04149999999998 598 115.04149999999998 C 595.336 115.04149999999998 595.336 111.04149999999998 598 111.04149999999998 Z"></path><path fill="#2f7ed8" d="M 596 111.10866666666669 C 598.664 111.10866666666669 598.664 115.10866666666669 596 115.10866666666669 C 593.336 115.10866666666669 593.336 111.10866666666669 596 111.10866666666669 Z"></path><path fill="#2f7ed8" d="M 594 111.98183333333333 C 596.664 111.98183333333333 596.664 115.98183333333333 594 115.98183333333333 C 591.336 115.98183333333333 591.336 111.98183333333333 594 111.98183333333333 Z"></path><path fill="#2f7ed8" d="M 584 114.53416666666669 C 586.664 114.53416666666669 586.664 118.53416666666669 584 118.53416666666669 C 581.336 118.53416666666669 581.336 114.53416666666669 584 114.53416666666669 Z"></path><path fill="#2f7ed8" d="M 582 114.87 C 584.664 114.87 584.664 118.87 582 118.87 C 579.336 118.87 579.336 114.87 582 114.87 Z"></path><path fill="#2f7ed8" d="M 580 115.60883333333334 C 582.664 115.60883333333334 582.664 119.60883333333334 580 119.60883333333334 C 577.336 119.60883333333334 577.336 115.60883333333334 580 115.60883333333334 Z"></path><path fill="#2f7ed8" d="M 578 115.60883333333334 C 580.664 115.60883333333334 580.664 119.60883333333334 578 119.60883333333334 C 575.336 119.60883333333334 575.336 115.60883333333334 578 115.60883333333334 Z"></path><path fill="#2f7ed8" d="M 576 115.60883333333334 C 578.664 115.60883333333334 578.664 119.60883333333334 576 119.60883333333334 C 573.336 119.60883333333334 573.336 115.60883333333334 576 115.60883333333334 Z"></path><path fill="#2f7ed8" d="M 574 115.60883333333334 C 576.664 115.60883333333334 576.664 119.60883333333334 574 119.60883333333334 C 571.336 119.60883333333334 571.336 115.60883333333334 574 115.60883333333334 Z"></path><path fill="#2f7ed8" d="M 572 115.60883333333334 C 574.664 115.60883333333334 574.664 119.60883333333334 572 119.60883333333334 C 569.336 119.60883333333334 569.336 115.60883333333334 572 115.60883333333334 Z"></path><path fill="#2f7ed8" d="M 570 120.04183333333333 C 572.664 120.04183333333333 572.664 124.04183333333333 570 124.04183333333333 C 567.336 124.04183333333333 567.336 120.04183333333333 570 120.04183333333333 Z"></path><path fill="#2f7ed8" d="M 568 120.04183333333333 C 570.664 120.04183333333333 570.664 124.04183333333333 568 124.04183333333333 C 565.336 124.04183333333333 565.336 120.04183333333333 568 120.04183333333333 Z"></path><path fill="#2f7ed8" d="M 566 124.47483333333332 C 568.664 124.47483333333332 568.664 128.47483333333332 566 128.47483333333332 C 563.336 128.47483333333332 563.336 124.47483333333332 566 124.47483333333332 Z"></path><path fill="#2f7ed8" d="M 564 124.54200000000003 C 566.664 124.54200000000003 566.664 128.54200000000003 564 128.54200000000003 C 561.336 128.54200000000003 561.336 124.54200000000003 564 124.54200000000003 Z"></path><path fill="#2f7ed8" d="M 562 126.2211666666667 C 564.664 126.2211666666667 564.664 130.2211666666667 562 130.2211666666667 C 559.336 130.2211666666667 559.336 126.2211666666667 562 126.2211666666667 Z"></path><path fill="#2f7ed8" d="M 560 129.31083333333333 C 562.664 129.31083333333333 562.664 133.31083333333333 560 133.31083333333333 C 557.336 133.31083333333333 557.336 129.31083333333333 560 129.31083333333333 Z"></path><path fill="#2f7ed8" d="M 558 129.5795 C 560.664 129.5795 560.664 133.5795 558 133.5795 C 555.336 133.5795 555.336 129.5795 558 129.5795 Z"></path><path fill="#2f7ed8" d="M 556 129.64666666666665 C 558.664 129.64666666666665 558.664 133.64666666666665 556 133.64666666666665 C 553.336 133.64666666666665 553.336 129.64666666666665 556 129.64666666666665 Z"></path><path fill="#2f7ed8" d="M 554 129.64666666666665 C 556.664 129.64666666666665 556.664 133.64666666666665 554 133.64666666666665 C 551.336 133.64666666666665 551.336 129.64666666666665 554 129.64666666666665 Z"></path><path fill="#2f7ed8" d="M 552 129.64666666666665 C 554.664 129.64666666666665 554.664 133.64666666666665 552 133.64666666666665 C 549.336 133.64666666666665 549.336 129.64666666666665 552 129.64666666666665 Z"></path><path fill="#2f7ed8" d="M 550 129.64666666666665 C 552.664 129.64666666666665 552.664 133.64666666666665 550 133.64666666666665 C 547.336 133.64666666666665 547.336 129.64666666666665 550 129.64666666666665 Z"></path><path fill="#2f7ed8" d="M 548 129.64666666666665 C 550.664 129.64666666666665 550.664 133.64666666666665 548 133.64666666666665 C 545.336 133.64666666666665 545.336 129.64666666666665 548 129.64666666666665 Z"></path><path fill="#2f7ed8" d="M 546 129.64666666666665 C 548.664 129.64666666666665 548.664 133.64666666666665 546 133.64666666666665 C 543.336 133.64666666666665 543.336 129.64666666666665 546 129.64666666666665 Z"></path><path fill="#2f7ed8" d="M 544 129.64666666666665 C 546.664 129.64666666666665 546.664 133.64666666666665 544 133.64666666666665 C 541.336 133.64666666666665 541.336 129.64666666666665 544 129.64666666666665 Z"></path><path fill="#2f7ed8" d="M 542 129.64666666666665 C 544.664 129.64666666666665 544.664 133.64666666666665 542 133.64666666666665 C 539.336 133.64666666666665 539.336 129.64666666666665 542 129.64666666666665 Z"></path><path fill="#2f7ed8" d="M 540 129.64666666666665 C 542.664 129.64666666666665 542.664 133.64666666666665 540 133.64666666666665 C 537.336 133.64666666666665 537.336 129.64666666666665 540 129.64666666666665 Z"></path><path fill="#2f7ed8" d="M 538 129.64666666666665 C 540.664 129.64666666666665 540.664 133.64666666666665 538 133.64666666666665 C 535.336 133.64666666666665 535.336 129.64666666666665 538 129.64666666666665 Z"></path><path fill="#2f7ed8" d="M 536 129.64666666666665 C 538.664 129.64666666666665 538.664 133.64666666666665 536 133.64666666666665 C 533.336 133.64666666666665 533.336 129.64666666666665 536 129.64666666666665 Z"></path><path fill="#2f7ed8" d="M 534 129.64666666666665 C 536.664 129.64666666666665 536.664 133.64666666666665 534 133.64666666666665 C 531.336 133.64666666666665 531.336 129.64666666666665 534 129.64666666666665 Z"></path><path fill="#2f7ed8" d="M 532 129.64666666666665 C 534.664 129.64666666666665 534.664 133.64666666666665 532 133.64666666666665 C 529.336 133.64666666666665 529.336 129.64666666666665 532 129.64666666666665 Z"></path><path fill="#2f7ed8" d="M 526 132.33333333333331 C 528.664 132.33333333333331 528.664 136.33333333333331 526 136.33333333333331 C 523.336 136.33333333333331 523.336 132.33333333333331 526 132.33333333333331 Z"></path><path fill="#2f7ed8" d="M 510 147.0428333333333 C 512.664 147.0428333333333 512.664 151.0428333333333 510 151.0428333333333 C 507.336 151.0428333333333 507.336 147.0428333333333 510 147.0428333333333 Z"></path><path fill="#2f7ed8" d="M 508 153.62516666666667 C 510.664 153.62516666666667 510.664 157.62516666666667 508 157.62516666666667 C 505.336 157.62516666666667 505.336 153.62516666666667 508 153.62516666666667 Z"></path><path fill="#2f7ed8" d="M 496 154.83416666666668 C 498.664 154.83416666666668 498.664 158.83416666666668 496 158.83416666666668 C 493.336 158.83416666666668 493.336 154.83416666666668 496 154.83416666666668 Z"></path><path fill="#2f7ed8" d="M 494 154.96849999999998 C 496.664 154.96849999999998 496.664 158.96849999999998 494 158.96849999999998 C 491.336 158.96849999999998 491.336 154.96849999999998 494 154.96849999999998 Z"></path><path fill="#2f7ed8" d="M 492 154.96849999999998 C 494.664 154.96849999999998 494.664 158.96849999999998 492 158.96849999999998 C 489.336 158.96849999999998 489.336 154.96849999999998 492 154.96849999999998 Z"></path><path fill="#2f7ed8" d="M 490 154.96849999999998 C 492.664 154.96849999999998 492.664 158.96849999999998 490 158.96849999999998 C 487.336 158.96849999999998 487.336 154.96849999999998 490 154.96849999999998 Z"></path><path fill="#2f7ed8" d="M 488 154.96849999999998 C 490.664 154.96849999999998 490.664 158.96849999999998 488 158.96849999999998 C 485.336 158.96849999999998 485.336 154.96849999999998 488 154.96849999999998 Z"></path><path fill="#2f7ed8" d="M 486 154.96849999999998 C 488.664 154.96849999999998 488.664 158.96849999999998 486 158.96849999999998 C 483.336 158.96849999999998 483.336 154.96849999999998 486 154.96849999999998 Z"></path><path fill="#2f7ed8" d="M 484 154.96849999999998 C 486.664 154.96849999999998 486.664 158.96849999999998 484 158.96849999999998 C 481.336 158.96849999999998 481.336 154.96849999999998 484 154.96849999999998 Z"></path><path fill="#2f7ed8" d="M 480 167.39433333333332 C 482.664 167.39433333333332 482.664 171.39433333333332 480 171.39433333333332 C 477.336 171.39433333333332 477.336 167.39433333333332 480 167.39433333333332 Z"></path><path fill="#2f7ed8" d="M 478 173.1035 C 480.664 173.1035 480.664 177.1035 478 177.1035 C 475.336 177.1035 475.336 173.1035 478 173.1035 Z"></path><path fill="#2f7ed8" d="M 476 173.305 C 478.664 173.305 478.664 177.305 476 177.305 C 473.336 177.305 473.336 173.305 476 173.305 Z"></path><path fill="#2f7ed8" d="M 474 173.305 C 476.664 173.305 476.664 177.305 474 177.305 C 471.336 177.305 471.336 173.305 474 173.305 Z"></path><path fill="#2f7ed8" d="M 472 175.85733333333332 C 474.664 175.85733333333332 474.664 179.85733333333332 472 179.85733333333332 C 469.336 179.85733333333332 469.336 175.85733333333332 472 175.85733333333332 Z"></path><path fill="#2f7ed8" d="M 470 175.99166666666667 C 472.664 175.99166666666667 472.664 179.99166666666667 470 179.99166666666667 C 467.336 179.99166666666667 467.336 175.99166666666667 470 175.99166666666667 Z"></path><path fill="#2f7ed8" d="M 468 176.86483333333334 C 470.664 176.86483333333334 470.664 180.86483333333334 468 180.86483333333334 C 465.336 180.86483333333334 465.336 176.86483333333334 468 176.86483333333334 Z"></path><path fill="#2f7ed8" d="M 466 183.31283333333334 C 468.664 183.31283333333334 468.664 187.31283333333334 466 187.31283333333334 C 463.336 187.31283333333334 463.336 183.31283333333334 466 183.31283333333334 Z"></path><path fill="#2f7ed8" d="M 464 196.14166666666665 C 466.664 196.14166666666665 466.664 200.14166666666665 464 200.14166666666665 C 461.336 200.14166666666665 461.336 196.14166666666665 464 196.14166666666665 Z"></path><path fill="#2f7ed8" d="M 462 201.78366666666668 C 464.664 201.78366666666668 464.664 205.78366666666668 462 205.78366666666668 C 459.336 205.78366666666668 459.336 201.78366666666668 462 201.78366666666668 Z"></path><path fill="#2f7ed8" d="M 460 207.82866666666666 C 462.664 207.82866666666666 462.664 211.82866666666666 460 211.82866666666666 C 457.336 211.82866666666666 457.336 207.82866666666666 460 207.82866666666666 Z"></path><path fill="#2f7ed8" d="M 458 207.82866666666666 C 460.664 207.82866666666666 460.664 211.82866666666666 458 211.82866666666666 C 455.336 211.82866666666666 455.336 207.82866666666666 458 207.82866666666666 Z"></path><path fill="#2f7ed8" d="M 456 207.82866666666666 C 458.664 207.82866666666666 458.664 211.82866666666666 456 211.82866666666666 C 453.336 211.82866666666666 453.336 207.82866666666666 456 207.82866666666666 Z"></path><path fill="#2f7ed8" d="M 454 207.82866666666666 C 456.664 207.82866666666666 456.664 211.82866666666666 454 211.82866666666666 C 451.336 211.82866666666666 451.336 207.82866666666666 454 207.82866666666666 Z"></path><path fill="#2f7ed8" d="M 452 207.82866666666666 C 454.664 207.82866666666666 454.664 211.82866666666666 452 211.82866666666666 C 449.336 211.82866666666666 449.336 207.82866666666666 452 207.82866666666666 Z"></path><path fill="#2f7ed8" d="M 450 207.82866666666666 C 452.664 207.82866666666666 452.664 211.82866666666666 450 211.82866666666666 C 447.336 211.82866666666666 447.336 207.82866666666666 450 207.82866666666666 Z"></path><path fill="#2f7ed8" d="M 448 207.82866666666666 C 450.664 207.82866666666666 450.664 211.82866666666666 448 211.82866666666666 C 445.336 211.82866666666666 445.336 207.82866666666666 448 207.82866666666666 Z"></path><path fill="#2f7ed8" d="M 446 207.82866666666666 C 448.664 207.82866666666666 448.664 211.82866666666666 446 211.82866666666666 C 443.336 211.82866666666666 443.336 207.82866666666666 446 207.82866666666666 Z"></path><path fill="#2f7ed8" d="M 444 207.82866666666666 C 446.664 207.82866666666666 446.664 211.82866666666666 444 211.82866666666666 C 441.336 211.82866666666666 441.336 207.82866666666666 444 207.82866666666666 Z"></path><path fill="#2f7ed8" d="M 442 207.82866666666666 C 444.664 207.82866666666666 444.664 211.82866666666666 442 211.82866666666666 C 439.336 211.82866666666666 439.336 207.82866666666666 442 207.82866666666666 Z"></path><path fill="#2f7ed8" d="M 440 208.5675 C 442.664 208.5675 442.664 212.5675 440 212.5675 C 437.336 212.5675 437.336 208.5675 440 208.5675 Z"></path><path fill="#2f7ed8" d="M 438 208.5675 C 440.664 208.5675 440.664 212.5675 438 212.5675 C 435.336 212.5675 435.336 208.5675 438 208.5675 Z"></path><path fill="#2f7ed8" d="M 436 208.76899999999998 C 438.664 208.76899999999998 438.664 212.76899999999998 436 212.76899999999998 C 433.336 212.76899999999998 433.336 208.76899999999998 436 208.76899999999998 Z"></path><path fill="#2f7ed8" d="M 434 208.83616666666666 C 436.664 208.83616666666666 436.664 212.83616666666666 434 212.83616666666666 C 431.336 212.83616666666666 431.336 208.83616666666666 434 208.83616666666666 Z"></path><path fill="#2f7ed8" d="M 432 208.9705 C 434.664 208.9705 434.664 212.9705 432 212.9705 C 429.336 212.9705 429.336 208.9705 432 208.9705 Z"></path><path fill="#2f7ed8" d="M 430 208.9705 C 432.664 208.9705 432.664 212.9705 430 212.9705 C 427.336 212.9705 427.336 208.9705 430 208.9705 Z"></path><path fill="#2f7ed8" d="M 428 208.9705 C 430.664 208.9705 430.664 212.9705 428 212.9705 C 425.336 212.9705 425.336 208.9705 428 208.9705 Z"></path><path fill="#2f7ed8" d="M 426 208.9705 C 428.664 208.9705 428.664 212.9705 426 212.9705 C 423.336 212.9705 423.336 208.9705 426 208.9705 Z"></path><path fill="#2f7ed8" d="M 424 210.31383333333332 C 426.664 210.31383333333332 426.664 214.31383333333332 424 214.31383333333332 C 421.336 214.31383333333332 421.336 210.31383333333332 424 210.31383333333332 Z"></path><path fill="#2f7ed8" d="M 422 219.4485 C 424.664 219.4485 424.664 223.4485 422 223.4485 C 419.336 223.4485 419.336 219.4485 422 219.4485 Z"></path><path fill="#2f7ed8" d="M 420 219.4485 C 422.664 219.4485 422.664 223.4485 420 223.4485 C 417.336 223.4485 417.336 219.4485 420 219.4485 Z"></path><path fill="#2f7ed8" d="M 418 219.4485 C 420.664 219.4485 420.664 223.4485 418 223.4485 C 415.336 223.4485 415.336 219.4485 418 219.4485 Z"></path><path fill="#2f7ed8" d="M 416 220.38883333333334 C 418.664 220.38883333333334 418.664 224.38883333333334 416 224.38883333333334 C 413.336 224.38883333333334 413.336 220.38883333333334 416 220.38883333333334 Z"></path><path fill="#2f7ed8" d="M 412 223.4785 C 414.664 223.4785 414.664 227.4785 412 227.4785 C 409.336 227.4785 409.336 223.4785 412 223.4785 Z"></path><path fill="#2f7ed8" d="M 410 224.41883333333334 C 412.664 224.41883333333334 412.664 228.41883333333334 410 228.41883333333334 C 407.336 228.41883333333334 407.336 224.41883333333334 410 224.41883333333334 Z"></path><path fill="#2f7ed8" d="M 408 224.55316666666667 C 410.664 224.55316666666667 410.664 228.55316666666667 408 228.55316666666667 C 405.336 228.55316666666667 405.336 224.55316666666667 408 224.55316666666667 Z"></path><path fill="#2f7ed8" d="M 406 224.55316666666667 C 408.664 224.55316666666667 408.664 228.55316666666667 406 228.55316666666667 C 403.336 228.55316666666667 403.336 224.55316666666667 406 224.55316666666667 Z"></path><path fill="#2f7ed8" d="M 404 227.9115 C 406.664 227.9115 406.664 231.9115 404 231.9115 C 401.336 231.9115 401.336 227.9115 404 227.9115 Z"></path><path fill="#2f7ed8" d="M 396 232.00866666666667 C 398.664 232.00866666666667 398.664 236.00866666666667 396 236.00866666666667 C 393.336 236.00866666666667 393.336 232.00866666666667 396 232.00866666666667 Z"></path><path fill="#2f7ed8" d="M 394 232.00866666666667 C 396.664 232.00866666666667 396.664 236.00866666666667 394 236.00866666666667 C 391.336 236.00866666666667 391.336 232.00866666666667 394 232.00866666666667 Z"></path><path fill="#2f7ed8" d="M 392 233.01616666666666 C 394.664 233.01616666666666 394.664 237.01616666666666 392 237.01616666666666 C 389.336 237.01616666666666 389.336 233.01616666666666 392 233.01616666666666 Z"></path><path fill="#2f7ed8" d="M 390 233.01616666666666 C 392.664 233.01616666666666 392.664 237.01616666666666 390 237.01616666666666 C 387.336 237.01616666666666 387.336 233.01616666666666 390 233.01616666666666 Z"></path><path fill="#2f7ed8" d="M 368 237.1805 C 370.664 237.1805 370.664 241.1805 368 241.1805 C 365.336 241.1805 365.336 237.1805 368 237.1805 Z"></path><path fill="#2f7ed8" d="M 355 238.25516666666667 C 357.664 238.25516666666667 357.664 242.25516666666667 355 242.25516666666667 C 352.336 242.25516666666667 352.336 238.25516666666667 355 238.25516666666667 Z"></path><path fill="#2f7ed8" d="M 353 238.25516666666667 C 355.664 238.25516666666667 355.664 242.25516666666667 353 242.25516666666667 C 350.336 242.25516666666667 350.336 238.25516666666667 353 238.25516666666667 Z"></path><path fill="#2f7ed8" d="M 351 245.64350000000002 C 353.664 245.64350000000002 353.664 249.64350000000002 351 249.64350000000002 C 348.336 249.64350000000002 348.336 245.64350000000002 351 245.64350000000002 Z"></path><path fill="#2f7ed8" d="M 347 248.39733333333334 C 349.664 248.39733333333334 349.664 252.39733333333334 347 252.39733333333334 C 344.336 252.39733333333334 344.336 248.39733333333334 347 248.39733333333334 Z"></path><path fill="#2f7ed8" d="M 345 249.472 C 347.664 249.472 347.664 253.472 345 253.472 C 342.336 253.472 342.336 249.472 345 249.472 Z"></path><path fill="#2f7ed8" d="M 341 249.74066666666667 C 343.664 249.74066666666667 343.664 253.74066666666667 341 253.74066666666667 C 338.336 253.74066666666667 338.336 249.74066666666667 341 249.74066666666667 Z"></path><path fill="#2f7ed8" d="M 335 250.14366666666666 C 337.664 250.14366666666666 337.664 254.14366666666666 335 254.14366666666666 C 332.336 254.14366666666666 332.336 250.14366666666666 335 250.14366666666666 Z"></path><path fill="#2f7ed8" d="M 325 250.4795 C 327.664 250.4795 327.664 254.4795 325 254.4795 C 322.336 254.4795 322.336 250.4795 325 250.4795 Z"></path><path fill="#2f7ed8" d="M 323 250.61383333333333 C 325.664 250.61383333333333 325.664 254.61383333333333 323 254.61383333333333 C 320.336 254.61383333333333 320.336 250.61383333333333 323 250.61383333333333 Z"></path><path fill="#2f7ed8" d="M 321 250.61383333333333 C 323.664 250.61383333333333 323.664 254.61383333333333 321 254.61383333333333 C 318.336 254.61383333333333 318.336 250.61383333333333 321 250.61383333333333 Z"></path><path fill="#2f7ed8" d="M 319 250.61383333333333 C 321.664 250.61383333333333 321.664 254.61383333333333 319 254.61383333333333 C 316.336 254.61383333333333 316.336 250.61383333333333 319 250.61383333333333 Z"></path><path fill="#2f7ed8" d="M 317 250.61383333333333 C 319.664 250.61383333333333 319.664 254.61383333333333 317 254.61383333333333 C 314.336 254.61383333333333 314.336 250.61383333333333 317 250.61383333333333 Z"></path><path fill="#2f7ed8" d="M 315 250.61383333333333 C 317.664 250.61383333333333 317.664 254.61383333333333 315 254.61383333333333 C 312.336 254.61383333333333 312.336 250.61383333333333 315 250.61383333333333 Z"></path><path fill="#2f7ed8" d="M 311 250.94966666666667 C 313.664 250.94966666666667 313.664 254.94966666666667 311 254.94966666666667 C 308.336 254.94966666666667 308.336 250.94966666666667 311 250.94966666666667 Z"></path><path fill="#2f7ed8" d="M 309 252.42733333333334 C 311.664 252.42733333333334 311.664 256.4273333333333 309 256.4273333333333 C 306.336 256.4273333333333 306.336 252.42733333333334 309 252.42733333333334 Z"></path><path fill="#2f7ed8" d="M 307 252.42733333333334 C 309.664 252.42733333333334 309.664 256.4273333333333 307 256.4273333333333 C 304.336 256.4273333333333 304.336 252.42733333333334 307 252.42733333333334 Z"></path><path fill="#2f7ed8" d="M 305 252.42733333333334 C 307.664 252.42733333333334 307.664 256.4273333333333 305 256.4273333333333 C 302.336 256.4273333333333 302.336 252.42733333333334 305 252.42733333333334 Z"></path><path fill="#2f7ed8" d="M 303 252.42733333333334 C 305.664 252.42733333333334 305.664 256.4273333333333 303 256.4273333333333 C 300.336 256.4273333333333 300.336 252.42733333333334 303 252.42733333333334 Z"></path><path fill="#2f7ed8" d="M 301 252.42733333333334 C 303.664 252.42733333333334 303.664 256.4273333333333 301 256.4273333333333 C 298.336 256.4273333333333 298.336 252.42733333333334 301 252.42733333333334 Z"></path><path fill="#2f7ed8" d="M 299 252.42733333333334 C 301.664 252.42733333333334 301.664 256.4273333333333 299 256.4273333333333 C 296.336 256.4273333333333 296.336 252.42733333333334 299 252.42733333333334 Z"></path><path fill="#2f7ed8" d="M 297 252.4945 C 299.664 252.4945 299.664 256.4945 297 256.4945 C 294.336 256.4945 294.336 252.4945 297 252.4945 Z"></path><path fill="#2f7ed8" d="M 295 252.56166666666667 C 297.664 252.56166666666667 297.664 256.56166666666667 295 256.56166666666667 C 292.336 256.56166666666667 292.336 252.56166666666667 295 252.56166666666667 Z"></path><path fill="#2f7ed8" d="M 293 255.44983333333334 C 295.664 255.44983333333334 295.664 259.44983333333334 293 259.44983333333334 C 290.336 259.44983333333334 290.336 255.44983333333334 293 255.44983333333334 Z"></path><path fill="#2f7ed8" d="M 291 255.44983333333334 C 293.664 255.44983333333334 293.664 259.44983333333334 291 259.44983333333334 C 288.336 259.44983333333334 288.336 255.44983333333334 291 255.44983333333334 Z"></path><path fill="#2f7ed8" d="M 289 255.44983333333334 C 291.664 255.44983333333334 291.664 259.44983333333334 289 259.44983333333334 C 286.336 259.44983333333334 286.336 255.44983333333334 289 255.44983333333334 Z"></path><path fill="#2f7ed8" d="M 287 255.44983333333334 C 289.664 255.44983333333334 289.664 259.44983333333334 287 259.44983333333334 C 284.336 259.44983333333334 284.336 255.44983333333334 287 255.44983333333334 Z"></path><path fill="#2f7ed8" d="M 285 258.5395 C 287.664 258.5395 287.664 262.5395 285 262.5395 C 282.336 262.5395 282.336 258.5395 285 258.5395 Z"></path><path fill="#2f7ed8" d="M 283 258.8753333333333 C 285.664 258.8753333333333 285.664 262.8753333333333 283 262.8753333333333 C 280.336 262.8753333333333 280.336 258.8753333333333 283 258.8753333333333 Z"></path><path fill="#2f7ed8" d="M 281 260.01716666666664 C 283.664 260.01716666666664 283.664 264.01716666666664 281 264.01716666666664 C 278.336 264.01716666666664 278.336 260.01716666666664 281 260.01716666666664 Z"></path><path fill="#2f7ed8" d="M 279 260.01716666666664 C 281.664 260.01716666666664 281.664 264.01716666666664 279 264.01716666666664 C 276.336 264.01716666666664 276.336 260.01716666666664 279 260.01716666666664 Z"></path><path fill="#2f7ed8" d="M 277 260.4873333333333 C 279.664 260.4873333333333 279.664 264.4873333333333 277 264.4873333333333 C 274.336 264.4873333333333 274.336 260.4873333333333 277 260.4873333333333 Z"></path><path fill="#2f7ed8" d="M 275 260.4873333333333 C 277.664 260.4873333333333 277.664 264.4873333333333 275 264.4873333333333 C 272.336 264.4873333333333 272.336 260.4873333333333 275 260.4873333333333 Z"></path><path fill="#2f7ed8" d="M 273 260.4873333333333 C 275.664 260.4873333333333 275.664 264.4873333333333 273 264.4873333333333 C 270.336 264.4873333333333 270.336 260.4873333333333 273 260.4873333333333 Z"></path><path fill="#2f7ed8" d="M 271 264.786 C 273.664 264.786 273.664 268.786 271 268.786 C 268.336 268.786 268.336 264.786 271 264.786 Z"></path><path fill="#2f7ed8" d="M 269 264.786 C 271.664 264.786 271.664 268.786 269 268.786 C 266.336 268.786 266.336 264.786 269 264.786 Z"></path><path fill="#2f7ed8" d="M 267 265.592 C 269.664 265.592 269.664 269.592 267 269.592 C 264.336 269.592 264.336 265.592 267 265.592 Z"></path><path fill="#2f7ed8" d="M 265 267.6741666666667 C 267.664 267.6741666666667 267.664 271.6741666666667 265 271.6741666666667 C 262.336 271.6741666666667 262.336 267.6741666666667 265 267.6741666666667 Z"></path><path fill="#2f7ed8" d="M 263 267.6741666666667 C 265.664 267.6741666666667 265.664 271.6741666666667 263 271.6741666666667 C 260.336 271.6741666666667 260.336 267.6741666666667 263 267.6741666666667 Z"></path><path fill="#2f7ed8" d="M 261 267.6741666666667 C 263.664 267.6741666666667 263.664 271.6741666666667 261 271.6741666666667 C 258.336 271.6741666666667 258.336 267.6741666666667 261 267.6741666666667 Z"></path><path fill="#2f7ed8" d="M 259 267.6741666666667 C 261.664 267.6741666666667 261.664 271.6741666666667 259 271.6741666666667 C 256.336 271.6741666666667 256.336 267.6741666666667 259 267.6741666666667 Z"></path><path fill="#2f7ed8" d="M 257 284.3315 C 259.664 284.3315 259.664 288.3315 257 288.3315 C 254.336 288.3315 254.336 284.3315 257 284.3315 Z"></path><path fill="#2f7ed8" d="M 255 289.9735 C 257.664 289.9735 257.664 293.9735 255 293.9735 C 252.336 293.9735 252.336 289.9735 255 289.9735 Z"></path><path fill="#2f7ed8" d="M 253 289.9735 C 255.664 289.9735 255.664 293.9735 253 293.9735 C 250.336 293.9735 250.336 289.9735 253 289.9735 Z"></path><path fill="#2f7ed8" d="M 251 289.9735 C 253.664 289.9735 253.664 293.9735 251 293.9735 C 248.336 293.9735 248.336 289.9735 251 289.9735 Z"></path><path fill="#2f7ed8" d="M 249 289.9735 C 251.664 289.9735 251.664 293.9735 249 293.9735 C 246.336 293.9735 246.336 289.9735 249 289.9735 Z"></path><path fill="#2f7ed8" d="M 247 289.9735 C 249.664 289.9735 249.664 293.9735 247 293.9735 C 244.336 293.9735 244.336 289.9735 247 289.9735 Z"></path><path fill="#2f7ed8" d="M 245 293.8691666666667 C 247.664 293.8691666666667 247.664 297.8691666666667 245 297.8691666666667 C 242.336 297.8691666666667 242.336 293.8691666666667 245 293.8691666666667 Z"></path><path fill="#2f7ed8" d="M 243 293.8691666666667 C 245.664 293.8691666666667 245.664 297.8691666666667 243 297.8691666666667 C 240.336 297.8691666666667 240.336 293.8691666666667 243 293.8691666666667 Z"></path><path fill="#2f7ed8" d="M 241 293.8691666666667 C 243.664 293.8691666666667 243.664 297.8691666666667 241 297.8691666666667 C 238.336 297.8691666666667 238.336 293.8691666666667 241 293.8691666666667 Z"></path><path fill="#2f7ed8" d="M 235 294.9438333333333 C 237.664 294.9438333333333 237.664 298.9438333333333 235 298.9438333333333 C 232.336 298.9438333333333 232.336 294.9438333333333 235 294.9438333333333 Z"></path><path fill="#2f7ed8" d="M 221 301.52616666666665 C 223.664 301.52616666666665 223.664 305.52616666666665 221 305.52616666666665 C 218.336 305.52616666666665 218.336 301.52616666666665 221 301.52616666666665 Z"></path><path fill="#2f7ed8" d="M 219 302.1306666666667 C 221.664 302.1306666666667 221.664 306.1306666666667 219 306.1306666666667 C 216.336 306.1306666666667 216.336 302.1306666666667 219 302.1306666666667 Z"></path><path fill="#2f7ed8" d="M 217 302.1306666666667 C 219.664 302.1306666666667 219.664 306.1306666666667 217 306.1306666666667 C 214.336 306.1306666666667 214.336 302.1306666666667 217 302.1306666666667 Z"></path><path fill="#2f7ed8" d="M 215 302.1306666666667 C 217.664 302.1306666666667 217.664 306.1306666666667 215 306.1306666666667 C 212.336 306.1306666666667 212.336 302.1306666666667 215 302.1306666666667 Z"></path><path fill="#2f7ed8" d="M 213 302.1306666666667 C 215.664 302.1306666666667 215.664 306.1306666666667 213 306.1306666666667 C 210.336 306.1306666666667 210.336 302.1306666666667 213 302.1306666666667 Z"></path><path fill="#2f7ed8" d="M 211 302.6008333333333 C 213.664 302.6008333333333 213.664 306.6008333333333 211 306.6008333333333 C 208.336 306.6008333333333 208.336 302.6008333333333 211 302.6008333333333 Z"></path><path fill="#2f7ed8" d="M 209 307.6383333333333 C 211.664 307.6383333333333 211.664 311.6383333333333 209 311.6383333333333 C 206.336 311.6383333333333 206.336 307.6383333333333 209 307.6383333333333 Z"></path><path fill="#2f7ed8" d="M 207 308.7801666666667 C 209.664 308.7801666666667 209.664 312.7801666666667 207 312.7801666666667 C 204.336 312.7801666666667 204.336 308.7801666666667 207 308.7801666666667 Z"></path><path fill="#2f7ed8" d="M 205 312.1385 C 207.664 312.1385 207.664 316.1385 205 316.1385 C 202.336 316.1385 202.336 312.1385 205 312.1385 Z"></path><path fill="#2f7ed8" d="M 203 312.1385 C 205.664 312.1385 205.664 316.1385 203 316.1385 C 200.336 316.1385 200.336 312.1385 203 312.1385 Z"></path><path fill="#2f7ed8" d="M 201 312.1385 C 203.664 312.1385 203.664 316.1385 201 316.1385 C 198.336 316.1385 198.336 312.1385 201 312.1385 Z"></path><path fill="#2f7ed8" d="M 199 312.1385 C 201.664 312.1385 201.664 316.1385 199 316.1385 C 196.336 316.1385 196.336 312.1385 199 312.1385 Z"></path><path fill="#2f7ed8" d="M 197 312.67583333333334 C 199.664 312.67583333333334 199.664 316.67583333333334 197 316.67583333333334 C 194.336 316.67583333333334 194.336 312.67583333333334 197 312.67583333333334 Z"></path><path fill="#2f7ed8" d="M 195 312.67583333333334 C 197.664 312.67583333333334 197.664 316.67583333333334 195 316.67583333333334 C 192.336 316.67583333333334 192.336 312.67583333333334 195 312.67583333333334 Z"></path><path fill="#2f7ed8" d="M 193 312.67583333333334 C 195.664 312.67583333333334 195.664 316.67583333333334 193 316.67583333333334 C 190.336 316.67583333333334 190.336 312.67583333333334 193 312.67583333333334 Z"></path><path fill="#2f7ed8" d="M 191 313.6161666666667 C 193.664 313.6161666666667 193.664 317.6161666666667 191 317.6161666666667 C 188.336 317.6161666666667 188.336 313.6161666666667 191 313.6161666666667 Z"></path><path fill="#2f7ed8" d="M 189 322.012 C 191.664 322.012 191.664 326.012 189 326.012 C 186.336 326.012 186.336 322.012 189 322.012 Z"></path><path fill="#2f7ed8" d="M 187 324.7658333333333 C 189.664 324.7658333333333 189.664 328.7658333333333 187 328.7658333333333 C 184.336 328.7658333333333 184.336 324.7658333333333 187 324.7658333333333 Z"></path><path fill="#2f7ed8" d="M 185 324.7658333333333 C 187.664 324.7658333333333 187.664 328.7658333333333 185 328.7658333333333 C 182.336 328.7658333333333 182.336 324.7658333333333 185 324.7658333333333 Z"></path><path fill="#2f7ed8" d="M 183 324.7658333333333 C 185.664 324.7658333333333 185.664 328.7658333333333 183 328.7658333333333 C 180.336 328.7658333333333 180.336 324.7658333333333 183 324.7658333333333 Z"></path><path fill="#2f7ed8" d="M 181 324.7658333333333 C 183.664 324.7658333333333 183.664 328.7658333333333 181 328.7658333333333 C 178.336 328.7658333333333 178.336 324.7658333333333 181 324.7658333333333 Z"></path><path fill="#2f7ed8" d="M 179 326.51216666666664 C 181.664 326.51216666666664 181.664 330.51216666666664 179 330.51216666666664 C 176.336 330.51216666666664 176.336 326.51216666666664 179 326.51216666666664 Z"></path><path fill="#2f7ed8" d="M 177 326.51216666666664 C 179.664 326.51216666666664 179.664 330.51216666666664 177 330.51216666666664 C 174.336 330.51216666666664 174.336 326.51216666666664 177 326.51216666666664 Z"></path><path fill="#2f7ed8" d="M 175 326.51216666666664 C 177.664 326.51216666666664 177.664 330.51216666666664 175 330.51216666666664 C 172.336 330.51216666666664 172.336 326.51216666666664 175 326.51216666666664 Z"></path><path fill="#2f7ed8" d="M 173 326.51216666666664 C 175.664 326.51216666666664 175.664 330.51216666666664 173 330.51216666666664 C 170.336 330.51216666666664 170.336 326.51216666666664 173 326.51216666666664 Z"></path><path fill="#2f7ed8" d="M 171 326.51216666666664 C 173.664 326.51216666666664 173.664 330.51216666666664 171 330.51216666666664 C 168.336 330.51216666666664 168.336 326.51216666666664 171 326.51216666666664 Z"></path><path fill="#2f7ed8" d="M 169 326.51216666666664 C 171.664 326.51216666666664 171.664 330.51216666666664 169 330.51216666666664 C 166.336 330.51216666666664 166.336 326.51216666666664 169 326.51216666666664 Z"></path><path fill="#2f7ed8" d="M 167 327.92266666666666 C 169.664 327.92266666666666 169.664 331.92266666666666 167 331.92266666666666 C 164.336 331.92266666666666 164.336 327.92266666666666 167 327.92266666666666 Z"></path><path fill="#2f7ed8" d="M 157 330.0048333333333 C 159.664 330.0048333333333 159.664 334.0048333333333 157 334.0048333333333 C 154.336 334.0048333333333 154.336 330.0048333333333 157 330.0048333333333 Z"></path><path fill="#2f7ed8" d="M 155 332.01983333333334 C 157.664 332.01983333333334 157.664 336.01983333333334 155 336.01983333333334 C 152.336 336.01983333333334 152.336 332.01983333333334 155 332.01983333333334 Z"></path><path fill="#2f7ed8" d="M 153 332.4228333333333 C 155.664 332.4228333333333 155.664 336.4228333333333 153 336.4228333333333 C 150.336 336.4228333333333 150.336 332.4228333333333 153 332.4228333333333 Z"></path><path fill="#2f7ed8" d="M 151 332.4228333333333 C 153.664 332.4228333333333 153.664 336.4228333333333 151 336.4228333333333 C 148.336 336.4228333333333 148.336 332.4228333333333 151 332.4228333333333 Z"></path><path fill="#2f7ed8" d="M 149 332.4228333333333 C 151.664 332.4228333333333 151.664 336.4228333333333 149 336.4228333333333 C 146.336 336.4228333333333 146.336 332.4228333333333 149 332.4228333333333 Z"></path><path fill="#2f7ed8" d="M 133 344.58 C 135.664 344.58 135.664 348.58 133 348.58 C 130.336 348.58 130.336 344.58 133 344.58 Z"></path><path fill="#2f7ed8" d="M 131 344.58 C 133.664 344.58 133.664 348.58 131 348.58 C 128.336 348.58 128.336 344.58 131 344.58 Z"></path><path fill="#2f7ed8" d="M 129 344.58 C 131.664 344.58 131.664 348.58 129 348.58 C 126.336 348.58 126.336 344.58 129 344.58 Z"></path><path fill="#2f7ed8" d="M 127 344.58 C 129.664 344.58 129.664 348.58 127 348.58 C 124.336 348.58 124.336 344.58 127 344.58 Z"></path><path fill="#2f7ed8" d="M 125 344.58 C 127.664 344.58 127.664 348.58 125 348.58 C 122.336 348.58 122.336 344.58 125 344.58 Z"></path><path fill="#2f7ed8" d="M 123 344.7815 C 125.664 344.7815 125.664 348.7815 123 348.7815 C 120.336 348.7815 120.336 344.7815 123 344.7815 Z"></path><path fill="#2f7ed8" d="M 117 354.7221666666667 C 119.664 354.7221666666667 119.664 358.7221666666667 117 358.7221666666667 C 114.336 358.7221666666667 114.336 354.7221666666667 117 354.7221666666667 Z"></path><path fill="#2f7ed8" d="M 109 355.461 C 111.664 355.461 111.664 359.461 109 359.461 C 106.336 359.461 106.336 355.461 109 355.461 Z"></path><path fill="#2f7ed8" d="M 107 361.9761666666667 C 109.664 361.9761666666667 109.664 365.9761666666667 107 365.9761666666667 C 104.336 365.9761666666667 104.336 361.9761666666667 107 361.9761666666667 Z"></path><path fill="#2f7ed8" d="M 105 361.9761666666667 C 107.664 361.9761666666667 107.664 365.9761666666667 105 365.9761666666667 C 102.336 365.9761666666667 102.336 361.9761666666667 105 361.9761666666667 Z"></path><path fill="#2f7ed8" d="M 103 361.9761666666667 C 105.664 361.9761666666667 105.664 365.9761666666667 103 365.9761666666667 C 100.336 365.9761666666667 100.336 361.9761666666667 103 361.9761666666667 Z"></path><path fill="#2f7ed8" d="M 101 361.9761666666667 C 103.664 361.9761666666667 103.664 365.9761666666667 101 365.9761666666667 C 98.336 365.9761666666667 98.336 361.9761666666667 101 361.9761666666667 Z"></path><path fill="#2f7ed8" d="M 99 362.1105 C 101.664 362.1105 101.664 366.1105 99 366.1105 C 96.336 366.1105 96.336 362.1105 99 362.1105 Z"></path><path fill="#2f7ed8" d="M 97 363.8568333333333 C 99.664 363.8568333333333 99.664 367.8568333333333 97 367.8568333333333 C 94.336 367.8568333333333 94.336 363.8568333333333 97 363.8568333333333 Z"></path><path fill="#2f7ed8" d="M 95 363.924 C 97.664 363.924 97.664 367.924 95 367.924 C 92.336 367.924 92.336 363.924 95 363.924 Z"></path><path fill="#2f7ed8" d="M 93 363.924 C 95.664 363.924 95.664 367.924 93 367.924 C 90.336 367.924 90.336 363.924 93 363.924 Z"></path><path fill="#2f7ed8" d="M 85 366.61066666666665 C 87.664 366.61066666666665 87.664 370.61066666666665 85 370.61066666666665 C 82.336 370.61066666666665 82.336 366.61066666666665 85 366.61066666666665 Z"></path><path fill="#2f7ed8" d="M 83 373.12583333333333 C 85.664 373.12583333333333 85.664 377.12583333333333 83 377.12583333333333 C 80.336 377.12583333333333 80.336 373.12583333333333 83 373.12583333333333 Z"></path><path fill="#2f7ed8" d="M 81 373.12583333333333 C 83.664 373.12583333333333 83.664 377.12583333333333 81 377.12583333333333 C 78.336 377.12583333333333 78.336 373.12583333333333 81 373.12583333333333 Z"></path><path fill="#2f7ed8" d="M 79 373.12583333333333 C 81.664 373.12583333333333 81.664 377.12583333333333 79 377.12583333333333 C 76.336 377.12583333333333 76.336 373.12583333333333 79 373.12583333333333 Z"></path><path fill="#2f7ed8" d="M 77 373.12583333333333 C 79.664 373.12583333333333 79.664 377.12583333333333 77 377.12583333333333 C 74.336 377.12583333333333 74.336 373.12583333333333 77 373.12583333333333 Z"></path><path fill="#2f7ed8" d="M 75 374.53633333333335 C 77.664 374.53633333333335 77.664 378.53633333333335 75 378.53633333333335 C 72.336 378.53633333333335 72.336 374.53633333333335 75 374.53633333333335 Z"></path><path fill="#2f7ed8" d="M 73 374.53633333333335 C 75.664 374.53633333333335 75.664 378.53633333333335 73 378.53633333333335 C 70.336 378.53633333333335 70.336 374.53633333333335 73 374.53633333333335 Z"></path><path fill="#2f7ed8" d="M 71 374.53633333333335 C 73.664 374.53633333333335 73.664 378.53633333333335 71 378.53633333333335 C 68.336 378.53633333333335 68.336 374.53633333333335 71 374.53633333333335 Z"></path><path fill="#2f7ed8" d="M 69 374.53633333333335 C 71.664 374.53633333333335 71.664 378.53633333333335 69 378.53633333333335 C 66.336 378.53633333333335 66.336 374.53633333333335 69 374.53633333333335 Z"></path><path fill="#2f7ed8" d="M 67 374.53633333333335 C 69.664 374.53633333333335 69.664 378.53633333333335 67 378.53633333333335 C 64.336 378.53633333333335 64.336 374.53633333333335 67 374.53633333333335 Z"></path><path fill="#2f7ed8" d="M 65 374.53633333333335 C 67.664 374.53633333333335 67.664 378.53633333333335 65 378.53633333333335 C 62.336 378.53633333333335 62.336 374.53633333333335 65 374.53633333333335 Z"></path><path fill="#2f7ed8" d="M 63 374.53633333333335 C 65.664 374.53633333333335 65.664 378.53633333333335 63 378.53633333333335 C 60.336 378.53633333333335 60.336 374.53633333333335 63 374.53633333333335 Z"></path><path fill="#2f7ed8" d="M 61 375.4766666666667 C 63.664 375.4766666666667 63.664 379.4766666666667 61 379.4766666666667 C 58.336 379.4766666666667 58.336 375.4766666666667 61 375.4766666666667 Z"></path><path fill="#2f7ed8" d="M 59 377.223 C 61.664 377.223 61.664 381.223 59 381.223 C 56.336 381.223 56.336 377.223 59 377.223 Z"></path><path fill="#2f7ed8" d="M 57 377.29016666666666 C 59.664 377.29016666666666 59.664 381.29016666666666 57 381.29016666666666 C 54.336 381.29016666666666 54.336 377.29016666666666 57 377.29016666666666 Z"></path><path fill="#2f7ed8" d="M 55 377.29016666666666 C 57.664 377.29016666666666 57.664 381.29016666666666 55 381.29016666666666 C 52.336 381.29016666666666 52.336 377.29016666666666 55 377.29016666666666 Z"></path><path fill="#2f7ed8" d="M 53 377.4245 C 55.664 377.4245 55.664 381.4245 53 381.4245 C 50.336 381.4245 50.336 377.4245 53 377.4245 Z"></path><path fill="#2f7ed8" d="M 51 378.2305 C 53.664 378.2305 53.664 382.2305 51 382.2305 C 48.336 382.2305 48.336 378.2305 51 378.2305 Z"></path><path fill="#2f7ed8" d="M 49 378.2305 C 51.664 378.2305 51.664 382.2305 49 382.2305 C 46.336 382.2305 46.336 378.2305 49 378.2305 Z"></path><path fill="#2f7ed8" d="M 47 378.2305 C 49.664 378.2305 49.664 382.2305 47 382.2305 C 44.336 382.2305 44.336 378.2305 47 378.2305 Z"></path><path fill="#2f7ed8" d="M 45 378.2305 C 47.664 378.2305 47.664 382.2305 45 382.2305 C 42.336 382.2305 42.336 378.2305 45 378.2305 Z"></path><path fill="#2f7ed8" d="M 43 379.9096666666667 C 45.664 379.9096666666667 45.664 383.9096666666667 43 383.9096666666667 C 40.336 383.9096666666667 40.336 379.9096666666667 43 379.9096666666667 Z"></path><path fill="#2f7ed8" d="M 41 379.9096666666667 C 43.664 379.9096666666667 43.664 383.9096666666667 41 383.9096666666667 C 38.336 383.9096666666667 38.336 379.9096666666667 41 379.9096666666667 Z"></path><path fill="#2f7ed8" d="M 39 380.044 C 41.664 380.044 41.664 384.044 39 384.044 C 36.336 384.044 36.336 380.044 39 380.044 Z"></path><path fill="#2f7ed8" d="M 37 393.41016666666667 C 39.664 393.41016666666667 39.664 397.41016666666667 37 397.41016666666667 C 34.336 397.41016666666667 34.336 393.41016666666667 37 393.41016666666667 Z"></path><path fill="#2f7ed8" d="M 35 393.41016666666667 C 37.664 393.41016666666667 37.664 397.41016666666667 35 397.41016666666667 C 32.336 397.41016666666667 32.336 393.41016666666667 35 393.41016666666667 Z"></path><path fill="#2f7ed8" d="M 33 393.41016666666667 C 35.664 393.41016666666667 35.664 397.41016666666667 33 397.41016666666667 C 30.336 397.41016666666667 30.336 393.41016666666667 33 393.41016666666667 Z"></path><path fill="#2f7ed8" d="M 31 395.42516666666666 C 33.664 395.42516666666666 33.664 399.42516666666666 31 399.42516666666666 C 28.336 399.42516666666666 28.336 395.42516666666666 31 395.42516666666666 Z"></path><path fill="#2f7ed8" d="M 29 397.1715 C 31.664 397.1715 31.664 401.1715 29 401.1715 C 26.336 401.1715 26.336 397.1715 29 397.1715 Z"></path><path fill="#2f7ed8" d="M 27 397.1715 C 29.664 397.1715 29.664 401.1715 27 401.1715 C 24.336 401.1715 24.336 397.1715 27 397.1715 Z"></path><path fill="#2f7ed8" d="M 25 401 C 27.664 401 27.664 405 25 405 C 22.336 405 22.336 401 25 401 Z"></path><path fill="#2f7ed8" d="M 21 401 C 23.664 401 23.664 405 21 405 C 18.336 405 18.336 401 21 401 Z"></path><path fill="#2f7ed8" d="M 19 401 C 21.664 401 21.664 405 19 405 C 16.336 405 16.336 401 19 401 Z"></path><path fill="#2f7ed8" d="M 17 401 C 19.664 401 19.664 405 17 405 C 14.336 405 14.336 401 17 401 Z"></path><path fill="#2f7ed8" d="M 15 401 C 17.664 401 17.664 405 15 405 C 12.336 405 12.336 401 15 401 Z"></path><path fill="#2f7ed8" d="M 13 401 C 15.664 401 15.664 405 13 405 C 10.336 405 10.336 401 13 401 Z"></path><path fill="#2f7ed8" d="M 11 401 C 13.664 401 13.664 405 11 405 C 8.336 405 8.336 401 11 401 Z"></path><path fill="#2f7ed8" d="M 9 401 C 11.664 401 11.664 405 9 405 C 6.336 405 6.336 401 9 401 Z"></path><path fill="#2f7ed8" d="M 7 401 C 9.664 401 9.664 405 7 405 C 4.336 405 4.336 401 7 401 Z"></path><path fill="#2f7ed8" d="M 5 401 C 7.664 401 7.664 405 5 405 C 2.336 405 2.336 401 5 401 Z"></path><path fill="#2f7ed8" d="M 3 401 C 5.664 401 5.664 405 3 405 C 0.33599999999999997 405 0.33599999999999997 401 3 401 Z"></path><path fill="#2f7ed8" d="M 1 401 C 3.664 401 3.664 405 1 405 C -1.6640000000000001 405 -1.6640000000000001 401 1 401 Z"></path></g><g class="highcharts-series highcharts-tracker" visibility="visible"  transform="translate(58,55) scale(1 1)" style="" clip-path="url(#highcharts-32)"><rect fill="#4572A7" x="1" y="404" width="2" height="0" rx="0" ry="0"></rect><rect fill="#4572A7" x="3" y="404" width="2" height="0" rx="0" ry="0"></rect><rect fill="#4572A7" x="5" y="404" width="2" height="0" rx="0" ry="0"></rect><rect fill="#4572A7" x="7" y="404" width="2" height="0" rx="0" ry="0"></rect><rect fill="#4572A7" x="9" y="404" width="2" height="0" rx="0" ry="0"></rect><rect fill="#4572A7" x="11" y="404" width="2" height="0" rx="0" ry="0"></rect><rect fill="#4572A7" x="13" y="404" width="2" height="0" rx="0" ry="0"></rect><rect fill="#4572A7" x="15" y="404" width="2" height="0" rx="0" ry="0"></rect><rect fill="#4572A7" x="17" y="404" width="2" height="0" rx="0" ry="0"></rect><rect fill="#4572A7" x="19" y="404" width="2" height="0" rx="0" ry="0"></rect><rect fill="#4572A7" x="21" y="404" width="2" height="0" rx="0" ry="0"></rect><rect fill="#4572A7" x="25" y="404" width="2" height="0" rx="0" ry="0"></rect><rect fill="#4572A7" x="27" y="400" width="2" height="4" rx="0" ry="0"></rect><rect fill="#4572A7" x="29" y="404" width="2" height="0" rx="0" ry="0"></rect><rect fill="#4572A7" x="31" y="402" width="2" height="2" rx="0" ry="0"></rect><rect fill="#4572A7" x="33" y="402" width="2" height="2" rx="0" ry="0"></rect><rect fill="#4572A7" x="35" y="404" width="2" height="0" rx="0" ry="0"></rect><rect fill="#4572A7" x="37" y="404" width="2" height="0" rx="0" ry="0"></rect><rect fill="#4572A7" x="39" y="391" width="2" height="13" rx="0" ry="0"></rect><rect fill="#4572A7" x="41" y="404" width="2" height="0" rx="0" ry="0"></rect><rect fill="#4572A7" x="43" y="404" width="2" height="0" rx="0" ry="0"></rect><rect fill="#4572A7" x="45" y="402" width="2" height="2" rx="0" ry="0"></rect><rect fill="#4572A7" x="47" y="404" width="2" height="0" rx="0" ry="0"></rect><rect fill="#4572A7" x="49" y="404" width="2" height="0" rx="0" ry="0"></rect><rect fill="#4572A7" x="51" y="404" width="2" height="0" rx="0" ry="0"></rect><rect fill="#4572A7" x="53" y="403" width="2" height="1" rx="0" ry="0"></rect><rect fill="#4572A7" x="55" y="404" width="2" height="0" rx="0" ry="0"></rect><rect fill="#4572A7" x="57" y="404" width="2" height="0" rx="0" ry="0"></rect><rect fill="#4572A7" x="59" y="404" width="2" height="0" rx="0" ry="0"></rect><rect fill="#4572A7" x="61" y="402" width="2" height="2" rx="0" ry="0"></rect><rect fill="#4572A7" x="63" y="403" width="2" height="1" rx="0" ry="0"></rect><rect fill="#4572A7" x="65" y="404" width="2" height="0" rx="0" ry="0"></rect><rect fill="#4572A7" x="67" y="404" width="2" height="0" rx="0" ry="0"></rect><rect fill="#4572A7" x="69" y="404" width="2" height="0" rx="0" ry="0"></rect><rect fill="#4572A7" x="71" y="404" width="2" height="0" rx="0" ry="0"></rect><rect fill="#4572A7" x="72" y="404" width="2" height="0" rx="0" ry="0"></rect><rect fill="#4572A7" x="74" y="404" width="2" height="0" rx="0" ry="0"></rect><rect fill="#4572A7" x="76" y="403" width="2" height="1" rx="0" ry="0"></rect><rect fill="#4572A7" x="78" y="404" width="2" height="0" rx="0" ry="0"></rect><rect fill="#4572A7" x="80" y="404" width="2" height="0" rx="0" ry="0"></rect><rect fill="#4572A7" x="82" y="404" width="2" height="0" rx="0" ry="0"></rect><rect fill="#4572A7" x="84" y="397" width="2" height="7" rx="0" ry="0"></rect><rect fill="#4572A7" x="94" y="404" width="2" height="0" rx="0" ry="0"></rect><rect fill="#4572A7" x="96" y="404" width="2" height="0" rx="0" ry="0"></rect><rect fill="#4572A7" x="98" y="402" width="2" height="2" rx="0" ry="0"></rect><rect fill="#4572A7" x="100" y="404" width="2" height="0" rx="0" ry="0"></rect><rect fill="#4572A7" x="102" y="404" width="2" height="0" rx="0" ry="0"></rect><rect fill="#4572A7" x="104" y="404" width="2" height="0" rx="0" ry="0"></rect><rect fill="#4572A7" x="106" y="404" width="2" height="0" rx="0" ry="0"></rect><rect fill="#4572A7" x="108" y="397" width="2" height="7" rx="0" ry="0"></rect><rect fill="#4572A7" x="124" y="404" width="2" height="0" rx="0" ry="0"></rect><rect fill="#4572A7" x="126" y="404" width="2" height="0" rx="0" ry="0"></rect><rect fill="#4572A7" x="128" y="404" width="2" height="0" rx="0" ry="0"></rect><rect fill="#4572A7" x="130" y="404" width="2" height="0" rx="0" ry="0"></rect><rect fill="#4572A7" x="132" y="404" width="2" height="0" rx="0" ry="0"></rect><rect fill="#4572A7" x="150" y="404" width="2" height="0" rx="0" ry="0"></rect><rect fill="#4572A7" x="152" y="404" width="2" height="0" rx="0" ry="0"></rect><rect fill="#4572A7" x="154" y="404" width="2" height="0" rx="0" ry="0"></rect><rect fill="#4572A7" x="156" y="402" width="2" height="2" rx="0" ry="0"></rect><rect fill="#4572A7" x="168" y="403" width="2" height="1" rx="0" ry="0"></rect><rect fill="#4572A7" x="170" y="404" width="2" height="0" rx="0" ry="0"></rect><rect fill="#4572A7" x="172" y="404" width="2" height="0" rx="0" ry="0"></rect><rect fill="#4572A7" x="174" y="404" width="2" height="0" rx="0" ry="0"></rect><rect fill="#4572A7" x="176" y="404" width="2" height="0" rx="0" ry="0"></rect><rect fill="#4572A7" x="178" y="404" width="2" height="0" rx="0" ry="0"></rect><rect fill="#4572A7" x="180" y="402" width="2" height="2" rx="0" ry="0"></rect><rect fill="#4572A7" x="182" y="404" width="2" height="0" rx="0" ry="0"></rect><rect fill="#4572A7" x="184" y="404" width="2" height="0" rx="0" ry="0"></rect><rect fill="#4572A7" x="186" y="404" width="2" height="0" rx="0" ry="0"></rect><rect fill="#4572A7" x="188" y="401" width="2" height="3" rx="0" ry="0"></rect><rect fill="#4572A7" x="190" y="396" width="2" height="8" rx="0" ry="0"></rect><rect fill="#4572A7" x="192" y="403" width="2" height="1" rx="0" ry="0"></rect><rect fill="#4572A7" x="194" y="404" width="2" height="0" rx="0" ry="0"></rect><rect fill="#4572A7" x="196" y="404" width="2" height="0" rx="0" ry="0"></rect><rect fill="#4572A7" x="198" y="403" width="2" height="1" rx="0" ry="0"></rect><rect fill="#4572A7" x="200" y="404" width="2" height="0" rx="0" ry="0"></rect><rect fill="#4572A7" x="202" y="404" width="2" height="0" rx="0" ry="0"></rect><rect fill="#4572A7" x="204" y="404" width="2" height="0" rx="0" ry="0"></rect><rect fill="#4572A7" x="206" y="401" width="2" height="3" rx="0" ry="0"></rect><rect fill="#4572A7" x="208" y="403" width="2" height="1" rx="0" ry="0"></rect><rect fill="#4572A7" x="210" y="399" width="2" height="5" rx="0" ry="0"></rect><rect fill="#4572A7" x="212" y="404" width="2" height="0" rx="0" ry="0"></rect><rect fill="#4572A7" x="214" y="404" width="2" height="0" rx="0" ry="0"></rect><rect fill="#4572A7" x="216" y="404" width="2" height="0" rx="0" ry="0"></rect><rect fill="#4572A7" x="218" y="404" width="2" height="0" rx="0" ry="0"></rect><rect fill="#4572A7" x="220" y="403" width="2" height="1" rx="0" ry="0"></rect><rect fill="#4572A7" x="242" y="404" width="2" height="0" rx="0" ry="0"></rect><rect fill="#4572A7" x="244" y="404" width="2" height="0" rx="0" ry="0"></rect><rect fill="#4572A7" x="246" y="400" width="2" height="4" rx="0" ry="0"></rect><rect fill="#4572A7" x="248" y="404" width="2" height="0" rx="0" ry="0"></rect><rect fill="#4572A7" x="250" y="404" width="2" height="0" rx="0" ry="0"></rect><rect fill="#4572A7" x="252" y="404" width="2" height="0" rx="0" ry="0"></rect><rect fill="#4572A7" x="254" y="404" width="2" height="0" rx="0" ry="0"></rect><rect fill="#4572A7" x="256" y="398" width="2" height="6" rx="0" ry="0"></rect><rect fill="#4572A7" x="258" y="387" width="2" height="17" rx="0" ry="0"></rect><rect fill="#4572A7" x="260" y="404" width="2" height="0" rx="0" ry="0"></rect><rect fill="#4572A7" x="262" y="404" width="2" height="0" rx="0" ry="0"></rect><rect fill="#4572A7" x="264" y="404" width="2" height="0" rx="0" ry="0"></rect><rect fill="#4572A7" x="266" y="402" width="2" height="2" rx="0" ry="0"></rect><rect fill="#4572A7" x="268" y="403" width="2" height="1" rx="0" ry="0"></rect><rect fill="#4572A7" x="270" y="404" width="2" height="0" rx="0" ry="0"></rect><rect fill="#4572A7" x="272" y="400" width="2" height="4" rx="0" ry="0"></rect><rect fill="#4572A7" x="274" y="404" width="2" height="0" rx="0" ry="0"></rect><rect fill="#4572A7" x="276" y="404" width="2" height="0" rx="0" ry="0"></rect><rect fill="#4572A7" x="278" y="404" width="2" height="0" rx="0" ry="0"></rect><rect fill="#4572A7" x="280" y="404" width="2" height="0" rx="0" ry="0"></rect><rect fill="#4572A7" x="282" y="403" width="2" height="1" rx="0" ry="0"></rect><rect fill="#4572A7" x="284" y="404" width="2" height="0" rx="0" ry="0"></rect><rect fill="#4572A7" x="286" y="401" width="2" height="3" rx="0" ry="0"></rect><rect fill="#4572A7" x="288" y="404" width="2" height="0" rx="0" ry="0"></rect><rect fill="#4572A7" x="290" y="404" width="2" height="0" rx="0" ry="0"></rect><rect fill="#4572A7" x="292" y="404" width="2" height="0" rx="0" ry="0"></rect><rect fill="#4572A7" x="294" y="401" width="2" height="3" rx="0" ry="0"></rect><rect fill="#4572A7" x="296" y="404" width="2" height="0" rx="0" ry="0"></rect><rect fill="#4572A7" x="298" y="404" width="2" height="0" rx="0" ry="0"></rect><rect fill="#4572A7" x="300" y="404" width="2" height="0" rx="0" ry="0"></rect><rect fill="#4572A7" x="302" y="404" width="2" height="0" rx="0" ry="0"></rect><rect fill="#4572A7" x="304" y="404" width="2" height="0" rx="0" ry="0"></rect><rect fill="#4572A7" x="306" y="404" width="2" height="0" rx="0" ry="0"></rect><rect fill="#4572A7" x="308" y="404" width="2" height="0" rx="0" ry="0"></rect><rect fill="#4572A7" x="310" y="403" width="2" height="1" rx="0" ry="0"></rect><rect fill="#4572A7" x="316" y="404" width="2" height="0" rx="0" ry="0"></rect><rect fill="#4572A7" x="318" y="404" width="2" height="0" rx="0" ry="0"></rect><rect fill="#4572A7" x="320" y="404" width="2" height="0" rx="0" ry="0"></rect><rect fill="#4572A7" x="322" y="404" width="2" height="0" rx="0" ry="0"></rect><rect fill="#4572A7" x="324" y="404" width="2" height="0" rx="0" ry="0"></rect><rect fill="#4572A7" x="346" y="403" width="2" height="1" rx="0" ry="0"></rect><rect fill="#4572A7" x="352" y="397" width="2" height="7" rx="0" ry="0"></rect><rect fill="#4572A7" x="354" y="404" width="2" height="0" rx="0" ry="0"></rect><rect fill="#4572A7" x="392" y="404" width="2" height="0" rx="0" ry="0"></rect><rect fill="#4572A7" x="394" y="403" width="2" height="1" rx="0" ry="0"></rect><rect fill="#4572A7" x="396" y="404" width="2" height="0" rx="0" ry="0"></rect><rect fill="#4572A7" x="406" y="401" width="2" height="3" rx="0" ry="0"></rect><rect fill="#4572A7" x="408" y="404" width="2" height="0" rx="0" ry="0"></rect><rect fill="#4572A7" x="410" y="404" width="2" height="0" rx="0" ry="0"></rect><rect fill="#4572A7" x="412" y="403" width="2" height="1" rx="0" ry="0"></rect><rect fill="#4572A7" x="418" y="403" width="2" height="1" rx="0" ry="0"></rect><rect fill="#4572A7" x="420" y="404" width="2" height="0" rx="0" ry="0"></rect><rect fill="#4572A7" x="422" y="404" width="2" height="0" rx="0" ry="0"></rect><rect fill="#4572A7" x="424" y="395" width="2" height="9" rx="0" ry="0"></rect><rect fill="#4572A7" x="426" y="403" width="2" height="1" rx="0" ry="0"></rect><rect fill="#4572A7" x="428" y="404" width="2" height="0" rx="0" ry="0"></rect><rect fill="#4572A7" x="430" y="404" width="2" height="0" rx="0" ry="0"></rect><rect fill="#4572A7" x="432" y="404" width="2" height="0" rx="0" ry="0"></rect><rect fill="#4572A7" x="434" y="404" width="2" height="0" rx="0" ry="0"></rect><rect fill="#4572A7" x="436" y="404" width="2" height="0" rx="0" ry="0"></rect><rect fill="#4572A7" x="438" y="404" width="2" height="0" rx="0" ry="0"></rect><rect fill="#4572A7" x="439" y="404" width="2" height="0" rx="0" ry="0"></rect><rect fill="#4572A7" x="441" y="403" width="2" height="1" rx="0" ry="0"></rect><rect fill="#4572A7" x="443" y="404" width="2" height="0" rx="0" ry="0"></rect><rect fill="#4572A7" x="445" y="404" width="2" height="0" rx="0" ry="0"></rect><rect fill="#4572A7" x="447" y="404" width="2" height="0" rx="0" ry="0"></rect><rect fill="#4572A7" x="449" y="404" width="2" height="0" rx="0" ry="0"></rect><rect fill="#4572A7" x="451" y="404" width="2" height="0" rx="0" ry="0"></rect><rect fill="#4572A7" x="453" y="404" width="2" height="0" rx="0" ry="0"></rect><rect fill="#4572A7" x="455" y="404" width="2" height="0" rx="0" ry="0"></rect><rect fill="#4572A7" x="457" y="404" width="2" height="0" rx="0" ry="0"></rect><rect fill="#4572A7" x="459" y="404" width="2" height="0" rx="0" ry="0"></rect><rect fill="#4572A7" x="461" y="398" width="2" height="6" rx="0" ry="0"></rect><rect fill="#4572A7" x="463" y="398" width="2" height="6" rx="0" ry="0"></rect><rect fill="#4572A7" x="465" y="391" width="2" height="13" rx="0" ry="0"></rect><rect fill="#4572A7" x="467" y="398" width="2" height="6" rx="0" ry="0"></rect><rect fill="#4572A7" x="469" y="403" width="2" height="1" rx="0" ry="0"></rect><rect fill="#4572A7" x="471" y="404" width="2" height="0" rx="0" ry="0"></rect><rect fill="#4572A7" x="473" y="401" width="2" height="3" rx="0" ry="0"></rect><rect fill="#4572A7" x="475" y="404" width="2" height="0" rx="0" ry="0"></rect><rect fill="#4572A7" x="477" y="404" width="2" height="0" rx="0" ry="0"></rect><rect fill="#4572A7" x="479" y="398" width="2" height="6" rx="0" ry="0"></rect><rect fill="#4572A7" x="485" y="404" width="2" height="0" rx="0" ry="0"></rect><rect fill="#4572A7" x="487" y="404" width="2" height="0" rx="0" ry="0"></rect><rect fill="#4572A7" x="489" y="404" width="2" height="0" rx="0" ry="0"></rect><rect fill="#4572A7" x="491" y="404" width="2" height="0" rx="0" ry="0"></rect><rect fill="#4572A7" x="493" y="404" width="2" height="0" rx="0" ry="0"></rect><rect fill="#4572A7" x="495" y="404" width="2" height="0" rx="0" ry="0"></rect><rect fill="#4572A7" x="509" y="397" width="2" height="7" rx="0" ry="0"></rect><rect fill="#4572A7" x="533" y="404" width="2" height="0" rx="0" ry="0"></rect><rect fill="#4572A7" x="535" y="404" width="2" height="0" rx="0" ry="0"></rect><rect fill="#4572A7" x="537" y="404" width="2" height="0" rx="0" ry="0"></rect><rect fill="#4572A7" x="539" y="404" width="2" height="0" rx="0" ry="0"></rect><rect fill="#4572A7" x="541" y="404" width="2" height="0" rx="0" ry="0"></rect><rect fill="#4572A7" x="543" y="404" width="2" height="0" rx="0" ry="0"></rect><rect fill="#4572A7" x="545" y="404" width="2" height="0" rx="0" ry="0"></rect><rect fill="#4572A7" x="547" y="404" width="2" height="0" rx="0" ry="0"></rect><rect fill="#4572A7" x="549" y="404" width="2" height="0" rx="0" ry="0"></rect><rect fill="#4572A7" x="551" y="404" width="2" height="0" rx="0" ry="0"></rect><rect fill="#4572A7" x="553" y="404" width="2" height="0" rx="0" ry="0"></rect><rect fill="#4572A7" x="555" y="404" width="2" height="0" rx="0" ry="0"></rect><rect fill="#4572A7" x="557" y="404" width="2" height="0" rx="0" ry="0"></rect><rect fill="#4572A7" x="559" y="404" width="2" height="0" rx="0" ry="0"></rect><rect fill="#4572A7" x="561" y="401" width="2" height="3" rx="0" ry="0"></rect><rect fill="#4572A7" x="563" y="402" width="2" height="2" rx="0" ry="0"></rect><rect fill="#4572A7" x="565" y="404" width="2" height="0" rx="0" ry="0"></rect><rect fill="#4572A7" x="567" y="400" width="2" height="4" rx="0" ry="0"></rect><rect fill="#4572A7" x="569" y="404" width="2" height="0" rx="0" ry="0"></rect><rect fill="#4572A7" x="571" y="400" width="2" height="4" rx="0" ry="0"></rect><rect fill="#4572A7" x="573" y="404" width="2" height="0" rx="0" ry="0"></rect><rect fill="#4572A7" x="575" y="404" width="2" height="0" rx="0" ry="0"></rect><rect fill="#4572A7" x="577" y="404" width="2" height="0" rx="0" ry="0"></rect><rect fill="#4572A7" x="579" y="404" width="2" height="0" rx="0" ry="0"></rect><rect fill="#4572A7" x="581" y="403" width="2" height="1" rx="0" ry="0"></rect><rect fill="#4572A7" x="583" y="404" width="2" height="0" rx="0" ry="0"></rect><rect fill="#4572A7" x="595" y="403" width="2" height="1" rx="0" ry="0"></rect><rect fill="#4572A7" x="597" y="404" width="2" height="0" rx="0" ry="0"></rect><rect fill="#4572A7" x="599" y="404" width="2" height="0" rx="0" ry="0"></rect><rect fill="#4572A7" x="601" y="404" width="2" height="0" rx="0" ry="0"></rect><rect fill="#4572A7" x="603" y="398" width="2" height="6" rx="0" ry="0"></rect><rect fill="#4572A7" x="605" y="404" width="2" height="0" rx="0" ry="0"></rect><rect fill="#4572A7" x="607" y="404" width="2" height="0" rx="0" ry="0"></rect><rect fill="#4572A7" x="609" y="404" width="2" height="0" rx="0" ry="0"></rect><rect fill="#4572A7" x="611" y="404" width="2" height="0" rx="0" ry="0"></rect><rect fill="#4572A7" x="613" y="404" width="2" height="0" rx="0" ry="0"></rect><rect fill="#4572A7" x="615" y="381" width="2" height="23" rx="0" ry="0"></rect><rect fill="#4572A7" x="617" y="404" width="2" height="0" rx="0" ry="0"></rect><rect fill="#4572A7" x="619" y="404" width="2" height="0" rx="0" ry="0"></rect><rect fill="#4572A7" x="621" y="404" width="2" height="0" rx="0" ry="0"></rect><rect fill="#4572A7" x="629" y="404" width="2" height="0" rx="0" ry="0"></rect><rect fill="#4572A7" x="631" y="404" width="2" height="0" rx="0" ry="0"></rect><rect fill="#4572A7" x="633" y="404" width="2" height="0" rx="0" ry="0"></rect><rect fill="#4572A7" x="635" y="404" width="2" height="0" rx="0" ry="0"></rect><rect fill="#4572A7" x="637" y="399" width="2" height="5" rx="0" ry="0"></rect><rect fill="#4572A7" x="639" y="397" width="2" height="7" rx="0" ry="0"></rect><rect fill="#4572A7" x="641" y="404" width="2" height="0" rx="0" ry="0"></rect><rect fill="#4572A7" x="643" y="400" width="2" height="4" rx="0" ry="0"></rect><rect fill="#4572A7" x="645" y="404" width="2" height="0" rx="0" ry="0"></rect><rect fill="#4572A7" x="647" y="404" width="2" height="0" rx="0" ry="0"></rect><rect fill="#4572A7" x="659" y="404" width="2" height="0" rx="0" ry="0"></rect><rect fill="#4572A7" x="661" y="404" width="2" height="0" rx="0" ry="0"></rect><rect fill="#4572A7" x="663" y="404" width="2" height="0" rx="0" ry="0"></rect><rect fill="#4572A7" x="665" y="404" width="2" height="0" rx="0" ry="0"></rect><rect fill="#4572A7" x="667" y="404" width="2" height="0" rx="0" ry="0"></rect><rect fill="#4572A7" x="669" y="404" width="2" height="0" rx="0" ry="0"></rect><rect fill="#4572A7" x="671" y="399" width="2" height="5" rx="0" ry="0"></rect><rect fill="#4572A7" x="673" y="404" width="2" height="0" rx="0" ry="0"></rect><rect fill="#4572A7" x="675" y="404" width="2" height="0" rx="0" ry="0"></rect><rect fill="#4572A7" x="677" y="404" width="2" height="0" rx="0" ry="0"></rect><rect fill="#4572A7" x="679" y="404" width="2" height="0" rx="0" ry="0"></rect><rect fill="#4572A7" x="681" y="404" width="2" height="0" rx="0" ry="0"></rect><rect fill="#4572A7" x="683" y="404" width="2" height="0" rx="0" ry="0"></rect><rect fill="#4572A7" x="685" y="404" width="2" height="0" rx="0" ry="0"></rect><rect fill="#4572A7" x="697" y="404" width="2" height="0" rx="0" ry="0"></rect><rect fill="#4572A7" x="703" y="403" width="2" height="1" rx="0" ry="0"></rect><rect fill="#4572A7" x="705" y="394" width="2" height="10" rx="0" ry="0"></rect><rect fill="#4572A7" x="707" y="404" width="2" height="0" rx="0" ry="0"></rect><rect fill="#4572A7" x="709" y="404" width="2" height="0" rx="0" ry="0"></rect><rect fill="#4572A7" x="711" y="404" width="2" height="0" rx="0" ry="0"></rect><rect fill="#4572A7" x="713" y="404" width="2" height="0" rx="0" ry="0"></rect><rect fill="#4572A7" x="715" y="404" width="2" height="0" rx="0" ry="0"></rect><rect fill="#4572A7" x="717" y="404" width="2" height="0" rx="0" ry="0"></rect><rect fill="#4572A7" x="719" y="398" width="2" height="6" rx="0" ry="0"></rect><rect fill="#4572A7" x="721" y="400" width="2" height="4" rx="0" ry="0"></rect><rect fill="#4572A7" x="723" y="404" width="2" height="0" rx="0" ry="0"></rect><rect fill="#4572A7" x="725" y="404" width="2" height="0" rx="0" ry="0"></rect><rect fill="#4572A7" x="727" y="404" width="2" height="0" rx="0" ry="0"></rect><rect fill="#4572A7" x="729" y="396" width="2" height="8" rx="0" ry="0"></rect></g><g class="highcharts-markers" visibility="visible"  transform="translate(58,55) scale(1 1)" clip-path="none"></g><g class="highcharts-series highcharts-tracker" visibility="visible"  transform="translate(58,55) scale(1 1)" style="" clip-path="url(#highcharts-32)"><rect fill="#89A54E" x="93" y="401" width="2" height="3" rx="0" ry="0"></rect><rect fill="#89A54E" x="117" y="403" width="2" height="1" rx="0" ry="0"></rect><rect fill="#89A54E" x="123" y="394" width="2" height="10" rx="0" ry="0"></rect><rect fill="#89A54E" x="149" y="392" width="2" height="12" rx="0" ry="0"></rect><rect fill="#89A54E" x="167" y="402" width="2" height="2" rx="0" ry="0"></rect><rect fill="#89A54E" x="235" y="397" width="2" height="7" rx="0" ry="0"></rect><rect fill="#89A54E" x="241" y="403" width="2" height="1" rx="0" ry="0"></rect><rect fill="#89A54E" x="314" y="404" width="2" height="0" rx="0" ry="0"></rect><rect fill="#89A54E" x="334" y="404" width="2" height="0" rx="0" ry="0"></rect><rect fill="#89A54E" x="340" y="404" width="2" height="0" rx="0" ry="0"></rect><rect fill="#89A54E" x="344" y="404" width="2" height="0" rx="0" ry="0"></rect><rect fill="#89A54E" x="350" y="401" width="2" height="3" rx="0" ry="0"></rect><rect fill="#89A54E" x="368" y="403" width="2" height="1" rx="0" ry="0"></rect><rect fill="#89A54E" x="390" y="400" width="2" height="4" rx="0" ry="0"></rect><rect fill="#89A54E" x="404" y="400" width="2" height="4" rx="0" ry="0"></rect><rect fill="#89A54E" x="416" y="401" width="2" height="3" rx="0" ry="0"></rect><rect fill="#89A54E" x="484" y="392" width="2" height="12" rx="0" ry="0"></rect><rect fill="#89A54E" x="508" y="403" width="2" height="1" rx="0" ry="0"></rect><rect fill="#89A54E" x="526" y="389" width="2" height="15" rx="0" ry="0"></rect><rect fill="#89A54E" x="532" y="401" width="2" height="3" rx="0" ry="0"></rect><rect fill="#89A54E" x="594" y="401" width="2" height="3" rx="0" ry="0"></rect><rect fill="#89A54E" x="628" y="404" width="2" height="0" rx="0" ry="0"></rect><rect fill="#89A54E" x="652" y="403" width="2" height="1" rx="0" ry="0"></rect><rect fill="#89A54E" x="658" y="402" width="2" height="2" rx="0" ry="0"></rect><rect fill="#89A54E" x="691" y="401" width="2" height="3" rx="0" ry="0"></rect><rect fill="#89A54E" x="695" y="401" width="2" height="3" rx="0" ry="0"></rect><rect fill="#89A54E" x="701" y="404" width="2" height="0" rx="0" ry="0"></rect></g><g class="highcharts-markers" visibility="visible"  transform="translate(58,55) scale(1 1)" clip-path="none"></g><g class="highcharts-series" visibility="visible"  transform="translate(58,55) scale(1 1)" clip-path="url(#highcharts-32)"><path fill="none" d="M 1.9945504087193462 403 L 61.83106267029974 378.28266666666667 L 121.66757493188013 355.446 L 183.49863760217983 333.54966666666667 L 245.32970027247956 308.4293333333333 L 303.1716621253406 285.5926666666667 L 365.00272479564035 256.4423333333333 L 424.83923705722077 234.41166666666666 L 486.6702997275205 209.49283333333332 L 546.5068119891008 181.82016666666667 L 608.3378746594005 150.31900000000002 L 670.1689373297003 120.4298333333333 L 730.0054495912807 92.42133333333334" stroke="#0d233a" stroke-width="2" ></path><path fill="none" d="M -8.005449591280653 403 L 1.9945504087193462 403 L 61.83106267029974 378.28266666666667 L 121.66757493188013 355.446 L 183.49863760217983 333.54966666666667 L 245.32970027247956 308.4293333333333 L 303.1716621253406 285.5926666666667 L 365.00272479564035 256.4423333333333 L 424.83923705722077 234.41166666666666 L 486.6702997275205 209.49283333333332 L 546.5068119891008 181.82016666666667 L 608.3378746594005 150.31900000000002 L 670.1689373297003 120.4298333333333 L 730.0054495912807 92.42133333333334 L 740.0054495912807 92.42133333333334" stroke-linejoin="round" visibility="visible" stroke-opacity="0.0001" stroke="rgb(192,192,192)" stroke-width="22"  class=" highcharts-tracker" style=""></path></g><g class="highcharts-markers highcharts-tracker" visibility="visible"  transform="translate(58,55) scale(1 1)" style="" clip-path="none"><path fill="#0d233a" d="M 730 88.42133333333334 L 734 92.42133333333334 730 96.42133333333334 726 92.42133333333334 Z"></path><path fill="#0d233a" d="M 670 116.4298333333333 L 674 120.4298333333333 670 124.4298333333333 666 120.4298333333333 Z"></path><path fill="#0d233a" d="M 608 146.31900000000002 L 612 150.31900000000002 608 154.31900000000002 604 150.31900000000002 Z"></path><path fill="#0d233a" d="M 546 177.82016666666667 L 550 181.82016666666667 546 185.82016666666667 542 181.82016666666667 Z"></path><path fill="#0d233a" d="M 486 205.49283333333332 L 490 209.49283333333332 486 213.49283333333332 482 209.49283333333332 Z"></path><path fill="#0d233a" d="M 424 230.41166666666666 L 428 234.41166666666666 424 238.41166666666666 420 234.41166666666666 Z"></path><path fill="#0d233a" d="M 365 252.4423333333333 L 369 256.4423333333333 365 260.4423333333333 361 256.4423333333333 Z"></path><path fill="#0d233a" d="M 303 281.5926666666667 L 307 285.5926666666667 303 289.5926666666667 299 285.5926666666667 Z"></path><path fill="#0d233a" d="M 245 304.4293333333333 L 249 308.4293333333333 245 312.4293333333333 241 308.4293333333333 Z"></path><path fill="#0d233a" d="M 183 329.54966666666667 L 187 333.54966666666667 183 337.54966666666667 179 333.54966666666667 Z"></path><path fill="#0d233a" d="M 121 351.446 L 125 355.446 121 359.446 117 355.446 Z"></path><path fill="#0d233a" d="M 61 374.28266666666667 L 65 378.28266666666667 61 382.28266666666667 57 378.28266666666667 Z"></path><path fill="#0d233a" d="M 1 399 L 5 403 1 407 -3 403 Z"></path></g></g><text x="400" y="25" style="font-family:'lucida grande', 'lucida sans unicode', verdana, arial, helvetica, sans-serif;font-size:16px;color:#274b6d;fill:#274b6d;width:736px;" text-anchor="middle" class="highcharts-title" ><tspan x="400">2020 Water Year (Oct 2019 - Sept 2020) Accumulated Precipitation</tspan></text><text x="400" y="40" style="font-family:'lucida grande', 'lucida sans unicode', verdana, arial, helvetica, sans-serif;font-size:12px;color:#4d759e;fill:#4d759e;width:736px;" text-anchor="middle" class="highcharts-subtitle" ><tspan x="400">Station: NC-CH-41 Pittsboro 3.3 NNW</tspan></text><g class="highcharts-legend"  transform="translate(95,62)"><rect rx="5" ry="5" fill="none" x="0.5" y="0.5" width="494" height="25" stroke="black" stroke-width="5"  stroke-opacity="0.049999999999999996" transform="translate(1, 1)" visibility="visible"></rect><rect rx="5" ry="5" fill="none" x="0.5" y="0.5" width="494" height="25" stroke="black" stroke-width="3"  stroke-opacity="0.09999999999999999" transform="translate(1, 1)" visibility="visible"></rect><rect rx="5" ry="5" fill="none" x="0.5" y="0.5" width="494" height="25" stroke="black" stroke-width="1"  stroke-opacity="0.15" transform="translate(1, 1)" visibility="visible"></rect><rect rx="5" ry="5" fill="url(#highcharts-31)" x="0.5" y="0.5" width="494" height="25" stroke="#909090" stroke-width="1" visibility="visible"></rect><g ><g><g class="highcharts-legend-item"  transform="translate(8,3)"><path fill="none" d="M 0 11 L 16 11" stroke="#2f7ed8" stroke-width="1"></path><path fill="#2f7ed8" d="M 8 9 C 10.664 9 10.664 13 8 13 C 5.336 13 5.336 9 8 9 Z"></path><text x="21" y="15" style="font-family:'lucida grande', 'lucida sans unicode', verdana, arial, helvetica, sans-serif;font-size:12px;cursor:pointer;color:#274b6d;fill:#274b6d;" text-anchor="start" ><tspan x="21">Accumulated Prcp</tspan></text></g><g class="highcharts-legend-item"  transform="translate(142.5500030517578,3)"><text x="21" y="15" style="font-family:'lucida grande', 'lucida sans unicode', verdana, arial, helvetica, sans-serif;font-size:12px;cursor:pointer;color:#274b6d;fill:#274b6d;" text-anchor="start" ><tspan x="21">Daily Prcp</tspan></text><rect rx="2" ry="2" fill="#4572A7" x="0" y="4" width="16" height="12" ></rect></g><g class="highcharts-legend-item"  transform="translate(230.41666793823242,3)"><text x="21" y="15" style="font-family:'lucida grande', 'lucida sans unicode', verdana, arial, helvetica, sans-serif;font-size:12px;cursor:pointer;color:#274b6d;fill:#274b6d;" text-anchor="start" ><tspan x="21">Multiday Prcp</tspan></text><rect rx="2" ry="2" fill="#89A54E" x="0" y="4" width="16" height="12" ></rect></g><g class="highcharts-legend-item"  transform="translate(339.1166648864746,3)"><path fill="none" d="M 0 11 L 16 11" stroke="#0d233a" stroke-width="2"></path><path fill="#0d233a" d="M 8 7 L 12 11 8 15 4 11 Z"></path><text x="21" y="15" style="font-family:'lucida grande', 'lucida sans unicode', verdana, arial, helvetica, sans-serif;font-size:12px;cursor:pointer;color:#274b6d;fill:#274b6d;" text-anchor="start" ><tspan x="21">30 Year Avg by PRISM</tspan></text></g></g></g></g><g class="highcharts-axis-labels" ><text x="59.99455040871935" y="472" style="font-family:'lucida grande', 'lucida sans unicode', verdana, arial, helvetica, sans-serif;font-size:11px;color:#666;cursor:default;line-height:14px;fill:#666;" text-anchor="middle" opacity="1"><tspan x="59.99455040871935"> Oct 19</tspan></text><text x="121.82561307901908" y="485.5" style="font-family:'lucida grande', 'lucida sans unicode', verdana, arial, helvetica, sans-serif;font-size:11px;color:#666;cursor:default;line-height:14px;fill:#666;" text-anchor="middle" opacity="1"><tspan x="121.82561307901908"> Nov 19</tspan></text><text x="181.66212534059946" y="472" style="font-family:'lucida grande', 'lucida sans unicode', verdana, arial, helvetica, sans-serif;font-size:11px;color:#666;cursor:default;line-height:14px;fill:#666;" text-anchor="middle" opacity="1"><tspan x="181.66212534059946"> Dec 19</tspan></text><text x="243.4931880108992" y="485.5" style="font-family:'lucida grande', 'lucida sans unicode', verdana, arial, helvetica, sans-serif;font-size:11px;color:#666;cursor:default;line-height:14px;fill:#666;" text-anchor="middle" opacity="1"><tspan x="243.4931880108992"> Jan 20</tspan></text><text x="305.3242506811989" y="472" style="font-family:'lucida grande', 'lucida sans unicode', verdana, arial, helvetica, sans-serif;font-size:11px;color:#666;cursor:default;line-height:14px;fill:#666;" text-anchor="middle" opacity="1"><tspan x="305.3242506811989"> Feb 20</tspan></text><text x="363.16621253406" y="485.5" style="font-family:'lucida grande', 'lucida sans unicode', verdana, arial, helvetica, sans-serif;font-size:11px;color:#666;cursor:default;line-height:14px;fill:#666;" text-anchor="middle" opacity="1"><tspan x="363.16621253406"> Mar 20</tspan></text><text x="424.9972752043597" y="472" style="font-family:'lucida grande', 'lucida sans unicode', verdana, arial, helvetica, sans-serif;font-size:11px;color:#666;cursor:default;line-height:14px;fill:#666;" text-anchor="middle" opacity="1"><tspan x="424.9972752043597"> Apr 20</tspan></text><text x="484.8337874659401" y="485.5" style="font-family:'lucida grande', 'lucida sans unicode', verdana, arial, helvetica, sans-serif;font-size:11px;color:#666;cursor:default;line-height:14px;fill:#666;" text-anchor="middle" opacity="1"><tspan x="484.8337874659401"> May 20</tspan></text><text x="546.6648501362398" y="472" style="font-family:'lucida grande', 'lucida sans unicode', verdana, arial, helvetica, sans-serif;font-size:11px;color:#666;cursor:default;line-height:14px;fill:#666;" text-anchor="middle" opacity="1"><tspan x="546.6648501362398"> Jun 20</tspan></text><text x="606.5013623978201" y="485.5" style="font-family:'lucida grande', 'lucida sans unicode', verdana, arial, helvetica, sans-serif;font-size:11px;color:#666;cursor:default;line-height:14px;fill:#666;" text-anchor="middle" opacity="1"><tspan x="606.5013623978201"> Jul 20</tspan></text><text x="668.3324250681198" y="472" style="font-family:'lucida grande', 'lucida sans unicode', verdana, arial, helvetica, sans-serif;font-size:11px;color:#666;cursor:default;line-height:14px;fill:#666;" text-anchor="middle" opacity="1"><tspan x="668.3324250681198"> Aug 20</tspan></text><text x="730.1634877384196" y="485.5" style="font-family:'lucida grande', 'lucida sans unicode', verdana, arial, helvetica, sans-serif;font-size:11px;color:#666;cursor:default;line-height:14px;fill:#666;" text-anchor="middle" opacity="1"><tspan x="730.1634877384196"> Sep 20</tspan></text><text x="0" y="-9999" style="font-family:'lucida grande', 'lucida sans unicode', verdana, arial, helvetica, sans-serif;font-size:11px;color:#666;cursor:default;line-height:14px;fill:#666;" text-anchor="middle"><tspan x="0"> Oct 20</tspan></text></g><g class="highcharts-axis-labels" ><text x="50" y="463.25" style="font-family:'lucida grande', 'lucida sans unicode', verdana, arial, helvetica, sans-serif;font-size:11px;width:244px;color:#666;cursor:default;line-height:14px;fill:#666;" text-anchor="end" opacity="1"><tspan x="50">0</tspan></text><text x="50" y="396.0833333333333" style="font-family:'lucida grande', 'lucida sans unicode', verdana, arial, helvetica, sans-serif;font-size:11px;width:244px;color:#666;cursor:default;line-height:14px;fill:#666;" text-anchor="end" opacity="1"><tspan x="50">10</tspan></text><text x="50" y="328.91666666666663" style="font-family:'lucida grande', 'lucida sans unicode', verdana, arial, helvetica, sans-serif;font-size:11px;width:244px;color:#666;cursor:default;line-height:14px;fill:#666;" text-anchor="end" opacity="1"><tspan x="50">20</tspan></text><text x="50" y="261.75" style="font-family:'lucida grande', 'lucida sans unicode', verdana, arial, helvetica, sans-serif;font-size:11px;width:244px;color:#666;cursor:default;line-height:14px;fill:#666;" text-anchor="end" opacity="1"><tspan x="50">30</tspan></text><text x="50" y="194.58333333333331" style="font-family:'lucida grande', 'lucida sans unicode', verdana, arial, helvetica, sans-serif;font-size:11px;width:244px;color:#666;cursor:default;line-height:14px;fill:#666;" text-anchor="end" opacity="1"><tspan x="50">40</tspan></text><text x="50" y="127.41666666666669" style="font-family:'lucida grande', 'lucida sans unicode', verdana, arial, helvetica, sans-serif;font-size:11px;width:244px;color:#666;cursor:default;line-height:14px;fill:#666;" text-anchor="end" opacity="1"><tspan x="50">50</tspan></text><text x="50" y="60.25" style="font-family:'lucida grande', 'lucida sans unicode', verdana, arial, helvetica, sans-serif;font-size:11px;width:244px;color:#666;cursor:default;line-height:14px;fill:#666;" text-anchor="end" opacity="1"><tspan x="50">60</tspan></text></g><g class="highcharts-tooltip"  style="cursor:default;padding:0;white-space:nowrap;line-height:2;" visibility="hidden" transform="translate(0,0)"><rect rx="3" ry="3" fill="none" x="0.5" y="0.5" width="20" height="20"  stroke="black" stroke-opacity="0.049999999999999996" stroke-width="5" transform="translate(1, 1)"></rect><rect rx="3" ry="3" fill="none" x="0.5" y="0.5" width="20" height="20"  stroke="black" stroke-opacity="0.09999999999999999" stroke-width="3" transform="translate(1, 1)"></rect><rect rx="3" ry="3" fill="none" x="0.5" y="0.5" width="20" height="20"  stroke="black" stroke-opacity="0.15" stroke-width="1" transform="translate(1, 1)"></rect><rect rx="3" ry="3" fill="url(#highcharts-30)" x="0.5" y="0.5" width="20" height="20"></rect><text x="10" y="23" style="font-family:'lucida grande', 'lucida sans unicode', verdana, arial, helvetica, sans-serif;font-size:12px;font-weight:bold;color:#333333;fill:#333333;" ></text></g></svg>